<?xml version="1.0" encoding="utf-8"?>
<COLLADA xmlns="http://www.collada.org/2005/11/COLLADASchema" version="1.4.1" xmlns:xsi="http://www.w3.org/2001/XMLSchema-instance">
  <asset>
    <contributor>
      <author>Blender User</author>
      <authoring_tool>Blender 4.5.3 LTS commit date:2025-09-08, commit time:12:46, hash:67807e1800cc</authoring_tool>
    </contributor>
    <created>2025-10-08T11:07:58</created>
    <modified>2025-10-08T11:07:58</modified>
    <unit name="meter" meter="1"/>
    <up_axis>Z_UP</up_axis>
  </asset>
  <library_cameras>
    <camera id="Camera-camera" name="Camera">
      <optics>
        <technique_common>
          <perspective>
            <xfov sid="xfov">39.59775</xfov>
            <aspect_ratio>1.777778</aspect_ratio>
            <znear sid="znear">0.1</znear>
            <zfar sid="zfar">100</zfar>
          </perspective>
        </technique_common>
      </optics>
      <extra>
        <technique profile="blender">
          <shiftx sid="shiftx" type="float">0</shiftx>
          <shifty sid="shifty" type="float">0</shifty>
          <dof_distance sid="dof_distance" type="float">10</dof_distance>
        </technique>
      </extra>
    </camera>
  </library_cameras>
  <library_lights>
    <light id="Light-light" name="Light">
      <technique_common>
        <point>
          <color sid="color">1000 1000 1000</color>
          <constant_attenuation>1</constant_attenuation>
          <linear_attenuation>0</linear_attenuation>
          <quadratic_attenuation>0</quadratic_attenuation>
        </point>
      </technique_common>
      <extra>
        <technique profile="blender">
          <type sid="type" type="int">0</type>
          <flag sid="flag" type="int">0</flag>
          <mode sid="mode" type="int">2097153</mode>
          <red sid="red" type="float">1</red>
          <green sid="green" type="float">1</green>
          <blue sid="blue" type="float">1</blue>
          <energy sid="blender_energy" type="float">1000</energy>
          <spotsize sid="spotsize" type="float">75</spotsize>
          <spotblend sid="spotblend" type="float">0.15</spotblend>
          <clipsta sid="clipsta" type="float">0.04999995</clipsta>
          <clipend sid="clipend" type="float">40</clipend>
          <radius sid="radius" type="float">0.1</radius>
          <area_shape sid="area_shape" type="int">1</area_shape>
          <area_size sid="area_size" type="float">0.1</area_size>
          <area_sizey sid="area_sizey" type="float">0.1</area_sizey>
          <area_sizez sid="area_sizez" type="float">1</area_sizez>
        </technique>
      </extra>
    </light>
  </library_lights>
  <library_images/>
  <library_geometries>
    <geometry id="other_side-mesh" name="other side">
      <mesh>
        <source id="other_side-mesh-positions">
          <float_array id="other_side-mesh-positions-array" count="1227">-6.570363 41.13134 24.76988 -10.87051 40.21731 24.76988 -10.87051 32.91755 24.76988 31.5338 14.83436 24.76988 26.72292 10.9125 24.76988 33.21683 10.67722 24.76988 27.60296 8.540576 24.76988 34.35445 6.338981 24.76988 28.27292 6.100974 24.76988 28.72772 3.612262 24.76988 34.92797 1.890887 24.76988 -13.55039 25.28805 24.76988 -15.73347 24.0095 24.76988 -17.79681 22.54554 24.76988 -11.26419 26.37146 24.76988 -8.892263 27.25151 24.76988 10.87028 32.91755 24.76988 -6.452658 27.92147 24.76988 -3.963946 28.37626 24.76988 -1.445069 28.61241 24.76988 1.084808 28.62813 24.76988 3.606426 28.42329 24.76988 20.02397 28.35446 24.76988 17.51067 22.76492 24.76988 23.53042 25.55816 24.76988 19.45878 21.15079 24.76988 26.65049 22.33643 24.76988 21.25879 19.37302 24.76988 22.897 17.44512 24.76988 29.33297 18.74215 24.76988 24.36095 15.38179 24.76988 25.6395 13.19871 24.76988 -23.11661 17.15922 24.76988 -21.50248 19.10732 24.76988 -19.7247 20.90733 24.76988 -35.00011 -0.3515711 24.76988 -28.97981 0.7333517 24.76988 -34.71276 4.124129 24.76988 -28.77498 3.25497 24.76988 -33.85543 8.52634 24.76988 10.87028 40.21731 24.76988 6.570133 41.13134 24.76988 2.197994 41.59087 24.76988 -2.198224 41.59087 24.76988 28.96386 1.093383 24.76988 28.99989 -0.3515711 24.76988 34.92797 -2.594029 24.76988 31.5338 -15.5375 24.76988 25.80591 -13.58219 24.76988 29.33297 -19.44529 24.76988 24.55458 -15.78099 24.76988 26.65049 -23.03957 24.76988 -33.85543 -9.229482 24.76988 -28.27315 -6.804114 24.76988 -34.71276 -4.827271 24.76988 -28.72794 -4.315402 24.76988 -28.96409 -1.796525 24.76988 28.97958 -1.436494 24.76988 28.77475 -3.958112 24.76988 34.35445 -7.042123 24.76988 28.35092 -6.452283 24.76988 33.21683 -11.38036 24.76988 27.71133 -8.900024 24.76988 26.86083 -11.2827 24.76988 23.11638 -17.86236 24.76988 21.50225 -19.81046 24.76988 23.53042 -26.2613 24.76988 19.72447 -21.61047 24.76988 20.02397 -29.0576 24.76988 17.79658 -23.24868 24.76988 15.73324 -24.71264 24.76988 16.18873 -31.38255 24.76988 13.55016 -25.99119 24.76988 12.08766 -33.19796 24.76988 -30.49627 -17.52668 24.76988 -25.63973 -13.90185 24.76988 -32.4422 -13.48592 24.76988 -26.72315 -11.61565 24.76988 -27.60319 -9.243719 24.76988 6.100597 27.99947 24.76988 8.548339 27.35987 24.76988 12.08766 32.49483 24.76988 10.93102 26.50937 24.76988 16.18873 30.67941 24.76988 13.23051 25.45445 24.76988 15.4293 24.20313 24.76988 11.26396 -27.0746 24.76988 8.892032 -27.95465 24.76988 7.788116 -34.47405 24.76988 6.45243 -28.62461 24.76988 3.360691 -35.18984 24.76988 -28.35115 5.749141 24.76988 -27.71156 8.196884 24.76988 -32.4422 12.78277 24.76988 -26.86106 10.57956 24.76988 -30.49627 16.82354 24.76988 -14.16753 31.65287 24.76988 -18.14385 29.57843 24.76988 -21.82226 27.01253 24.76988 3.963718 -29.0794 24.76988 1.444839 -29.31555 24.76988 -1.121918 -35.33359 24.76988 -1.085038 -29.33127 24.76988 -5.586112 -34.90293 24.76988 -25.80613 12.87905 24.76988 -24.55481 15.07785 24.76988 -28.04959 20.5823 24.76988 -25.14234 23.99732 24.76988 -3.606656 -29.12644 24.76988 -6.100827 -28.70261 24.76988 -9.958581 -33.90494 24.76988 -8.548568 -28.06301 24.76988 -14.16753 -32.35601 24.76988 -10.93125 -27.21251 24.76988 -13.23074 -26.15759 24.76988 -18.14385 -30.28157 24.76988 -15.42954 -24.90627 24.76988 -21.82226 -27.71567 24.76988 -17.5109 -23.46806 24.76988 -19.459 -21.85393 24.76988 -25.14234 -24.70046 24.76988 -21.25901 -20.07616 24.76988 -28.04959 -21.28544 24.76988 -22.89723 -18.14826 24.76988 -24.36118 -16.08493 24.76988 10.87028 32.91755 9.76988 7.788116 33.7709 9.76988 12.08766 32.49483 -15.23012 -9.958581 33.2018 -15.23012 -5.586112 34.19979 9.76988 -5.586112 34.19979 -15.23012 -1.121918 34.63045 9.76988 -1.121918 34.63045 -15.23012 3.360691 34.4867 9.76988 3.360691 34.4867 -15.23012 7.788116 33.7709 -15.23012 -10.87051 32.91755 9.76988 16.18873 30.67941 -15.23012 20.02397 28.35446 -15.23012 23.53042 25.55816 -15.23012 26.65049 22.33643 -15.23012 29.33297 18.74215 -15.23012 31.5338 14.83436 -15.23012 33.21683 10.67722 -15.23012 34.35445 6.338981 -15.23012 34.92797 1.890887 -15.23012 34.99988 -0.3515711 -15.23012 34.92797 -2.594029 -15.23012 34.35445 -7.042123 -15.23012 33.21683 -11.38036 -15.23012 31.5338 -15.5375 -15.23012 29.33297 -19.44529 -15.23012 26.65049 -23.03957 -15.23012 23.53042 -26.2613 -15.23012 20.02397 -29.0576 -15.23012 16.18873 -31.38255 -15.23012 12.08766 -33.19796 -15.23012 7.788116 -34.47405 -15.23012 3.360691 -35.18984 -15.23012 -1.121918 -35.33359 -15.23012 -5.586112 -34.90293 -15.23012 -9.958581 -33.90494 -15.23012 -14.16753 -32.35601 -15.23012 -18.14385 -30.28157 -15.23012 -21.82226 -27.71567 -15.23012 -25.14234 -24.70046 -15.23012 -28.04959 -21.28544 -15.23012 -30.49627 -17.52668 -15.23012 -32.4422 -13.48592 -15.23012 -33.85543 -9.229482 -15.23012 -34.71276 -4.827271 -15.23012 -35.00011 -0.3515711 -15.23012 -34.71276 4.124129 -15.23012 -33.85543 8.52634 -15.23012 -32.4422 12.78277 -15.23012 -30.49627 16.82354 -15.23012 -28.04959 20.5823 -15.23012 -25.14234 23.99732 -15.23012 -21.82226 27.01253 -15.23012 -18.14385 29.57843 -15.23012 -14.16753 31.65287 -15.23012 -9.958581 33.2018 9.76988 0.8487085 -20.33355 -15.23012 -2.540471 -20.18958 -15.23012 -5.85657 -19.4749 -15.23012 -9.00419 -18.21009 -15.23012 -11.89278 -16.43151 -15.23012 -14.43924 -14.19035 -15.23012 -16.57031 -11.55107 -15.23012 19.99989 -0.3515711 -15.23012 19.7122 -3.731587 -15.23012 18.85743 -7.014367 -15.23012 17.46017 -10.10547 -15.23012 19.7122 3.028445 -15.23012 15.5606 -12.91597 -15.23012 13.21338 -15.36502 -15.23012 10.48603 -17.38215 -15.23012 15.5606 12.21283 -15.23012 17.46017 9.402328 -15.23012 18.85743 6.311225 -15.23012 -2.540471 19.48644 -15.23012 0.8487085 19.63041 -15.23012 4.21347 19.19954 -15.23012 7.457015 18.20621 -15.23012 -11.89278 15.72837 -15.23012 -9.00419 17.50695 -15.23012 -5.85657 18.77176 -15.23012 7.457015 -18.90935 -15.23012 4.21347 -19.90268 -15.23012 10.48603 16.67901 -15.23012 13.21338 14.66188 -15.23012 -18.22468 7.886455 -15.23012 -16.57031 10.84793 -15.23012 -14.43924 13.4872 -15.23012 -18.22468 -8.589597 -15.23012 -19.35477 -5.391131 -15.23012 -19.92807 -2.047688 -15.23012 -20.00012 -0.3515711 -15.23012 -19.92807 1.344546 -15.23012 -19.35477 4.687991 -15.23012 -19.92807 1.344546 -60.23012 -20.00012 -0.3515711 -60.23012 -19.92807 -2.047688 -60.23012 -19.35477 -5.391131 -60.23012 -18.22468 -8.589597 -60.23012 -16.57031 -11.55107 -60.23012 -14.43924 -14.19035 -60.23012 -11.89278 -16.43151 -60.23012 -9.00419 -18.21009 -60.23012 -5.85657 -19.4749 -60.23012 -2.540471 -20.18958 -60.23012 0.8487085 -20.33355 -60.23012 4.21347 -19.90268 -60.23012 7.457015 -18.90935 -60.23012 10.48603 -17.38215 -60.23012 13.21338 -15.36502 -60.23012 15.5606 -12.91597 -60.23012 17.46017 -10.10547 -60.23012 18.85743 -7.014367 -60.23012 19.7122 -3.731587 -60.23012 19.99989 -0.3515711 -60.23012 19.7122 3.028445 -60.23012 18.85743 6.311225 -60.23012 17.46017 9.402328 -60.23012 15.5606 12.21283 -60.23012 13.21338 14.66188 -60.23012 10.48603 16.67901 -60.23012 7.457015 18.20621 -60.23012 4.21347 19.19954 -60.23012 0.8487085 19.63041 -60.23012 -2.540471 19.48644 -60.23012 -5.85657 18.77176 -60.23012 -9.00419 17.50695 -60.23012 -11.89278 15.72837 -60.23012 -14.43924 13.4872 -60.23012 -16.57031 10.84793 -60.23012 -18.22468 7.886455 -60.23012 -19.35477 4.687991 -60.23012 -1.15015e-4 -0.3515711 -60.23012 6.121417 -8.258962 54.76988 6.787296 -7.695346 54.76988 -3.78735 -9.60667 54.76988 -9.772254 1.770999 54.76988 -9.920063 0.9112234 54.76988 8.850139 4.303859 54.76988 -9.52432 -3.399442 54.76988 -9.753717 -2.557755 54.76988 -9.908884 -1.699277 54.76988 4.655315 -9.201826 54.76988 5.40895 -8.762399 54.76988 -2.122685 -10.12371 54.76988 7.401523 -7.075839 54.76988 7.959415 -6.405156 54.76988 -8.85037 -5.006999 54.76988 8.456729 -5.688401 54.76988 8.889686 -4.931031 54.76988 8.410713 5.057494 54.76988 7.907276 5.769961 54.76988 -9.255214 3.435664 54.76988 7.343662 6.43584 54.76988 -3.866477 8.870754 54.76988 -4.655543 8.498683 54.76988 0.3932947 9.640689 54.76988 -9.550075 2.614619 54.76988 -9.992374 0.04183864 54.76988 -9.988639 -0.8305445 54.76988 9.254981 -4.138806 54.76988 9.549846 -3.317761 54.76988 9.772026 -2.474141 54.76988 -9.222438 -4.217933 54.76988 9.222209 3.514792 54.76988 9.524089 2.6963 54.76988 2.966075 9.19839 54.76988 2.122455 9.42057 54.76988 -0.4790884 9.636951 54.76988 -1.347821 9.557197 54.76988 -2.206299 9.40203 54.76988 -5.409178 8.059257 54.76988 -6.121647 7.555819 54.76988 -6.787528 6.992206 54.76988 -8.410943 -5.760634 54.76988 -7.907505 -6.473104 54.76988 -7.34389 -7.138984 54.76988 -6.724383 -7.753207 54.76988 -6.0537 -8.311101 54.76988 -2.966305 -9.901531 54.76988 9.988407 0.1274023 54.76988 9.908653 0.9961348 54.76988 9.753486 1.854613 54.76988 6.724151 7.050067 54.76988 6.05347 7.607959 54.76988 5.336715 8.105274 54.76988 -7.401751 6.372695 54.76988 -7.959645 5.702014 54.76988 -8.456962 4.985259 54.76988 1.262679 9.568378 54.76988 -8.889915 4.227889 54.76988 -5.336945 -8.808418 54.76988 -4.579575 -9.241371 54.76988 9.919834 -1.614366 54.76988 9.992145 -0.744977 54.76988 4.579345 8.53823 54.76988 3.78712 8.903526 54.76988 -3.047986 9.172634 54.76988 -1.26291 -10.27152 54.76988 -0.3935209 -10.34383 54.76988 0.4788584 -10.34009 54.76988 2.206069 -10.10517 54.76988 3.047756 -9.875776 54.76988 3.866249 -9.573894 54.76988 1.347591 -10.26034 54.76988 -6.306006 17.96433 39.76988 -7.878346 17.34504 39.76988 -9.390729 16.59107 39.76988 -10.83164 15.70815 39.76988 -12.19012 14.70301 39.76988 -13.45583 13.58329 39.76988 -14.61913 12.35752 39.76988 -15.67117 11.03503 39.76988 -16.60394 9.625877 39.76988 -17.41035 8.140789 39.76988 -18.08426 6.591071 39.76988 -18.62053 4.988513 39.76988 -19.0151 3.345317 39.76988 -19.26494 1.673984 39.76988 -19.36818 -0.01276493 39.76988 -19.324 -1.702088 39.76988 -19.13276 -3.381139 39.76988 -18.79591 -5.037129 39.76988 -18.31602 -6.657462 39.76988 -17.69672 -8.229803 39.76988 -16.94275 -9.742185 39.76988 -16.05983 -11.1831 39.76988 -15.05469 -12.54158 39.76988 -13.93497 -13.80728 39.76988 -12.70921 -14.97058 39.76988 -11.38671 -16.02263 39.76988 -9.977561 -16.9554 39.76988 -8.492475 -17.76181 39.76988 -6.942757 -18.43572 39.76988 -5.340201 -18.97199 39.76988 -3.697003 -19.36655 39.76988 -2.02567 -19.6164 39.76988 -0.3389211 -19.71963 39.76988 1.350402 -19.67546 39.76988 3.029453 -19.48422 39.76988 4.685443 -19.14737 39.76988 6.305778 -18.66747 39.76988 7.878116 -18.04818 39.76988 9.390499 -17.29421 39.76988 10.83141 -16.41129 39.76988 12.18989 -15.40615 39.76988 13.4556 -14.28643 39.76988 14.6189 -13.06066 39.76988 15.67094 -11.73817 39.76988 16.60371 -10.32902 39.76988 17.41012 -8.843931 39.76988 18.08403 -7.294213 39.76988 18.6203 -5.691657 39.76988 19.01487 -4.048459 39.76988 19.26471 -2.377126 39.76988 19.36795 -0.6903772 39.76988 19.32377 0.9989462 39.76988 19.13253 2.677997 39.76988 18.79569 4.333987 39.76988 18.31579 5.954322 39.76988 17.6965 7.52666 39.76988 16.94252 9.039043 39.76988 16.05961 10.47996 39.76988 15.05446 11.83843 39.76988 13.93474 13.10414 39.76988 12.70898 14.26744 39.76988 11.38648 15.31948 39.76988 9.977333 16.25226 39.76988 8.492244 17.05867 39.76988 6.942527 17.73258 39.76988 5.339969 18.26885 39.76988 3.696773 18.66341 39.76988 2.02544 18.91326 39.76988 0.3386911 19.01649 39.76988 -1.350632 18.97232 39.76988 -3.029683 18.78108 39.76988 -4.685673 18.44423 39.76988 -10.87051 40.21731 9.76988 -6.570363 41.13134 9.76988 -2.198224 41.59087 9.76988 2.197994 41.59087 9.76988 6.570133 41.13134 9.76988 10.87028 40.21731 9.76988</float_array>
          <technique_common>
            <accessor source="#other_side-mesh-positions-array" count="409" stride="3">
              <param name="X" type="float"/>
              <param name="Y" type="float"/>
              <param name="Z" type="float"/>
            </accessor>
          </technique_common>
        </source>
        <source id="other_side-mesh-normals">
          <float_array id="other_side-mesh-normals-array" count="2442">0 0 1 0 0 1 0 0 1 0 0 1 0 0 1 0 0 1 0 0 1 0 0 1 0 0 1 0 0 1 0 0 1 0 0 1 0 0 1 0 0 1 0 0 1 0 0 1 0 0 1 0 0 1 0 0 1 0 0 1 0 0 1 0 0 1 0 0 1 0 0 1 0 0 1 0 0 1 0 0 1 0 0 1 0 0 1 0 0 1 0 0 1 0 0 1 0 0 1 0 0 1 0 0 1 0 0 1 0 0 1 0 0 1 0 0 1 0 0 1 0 0 1 0 0 1 0 0 1 0 0 1 0 0 1 0 0 1 0 0 1 0 0 1 0 0 1 0 0 1 0 0 1 0 0 1 0 0 1 0 0 1 0 0 1 0 0 1 0 0 1 0 0 1 0 0 1 0 0 1 0 0 1 0 0 1 0 0 1 0 0 1 0 0 1 0 0 1 0 0 1 0 0 1 0 0 1 0 0 1 0 0 1 0 0 1 0 0 1 0 0 1 0 0 1 0 0 1 0 0 1 0 0 1 0 0 1 0 0 1 0 0 1 0 0 1 0 0 1 0 0 1 0 0 1 0 0 1 0 0 1 0 0 1 0 0 1 0 0 1 0 0 1 0 0 1 0 0 1 0 0 1 0 0 1 0 0 1 0 0 1 0 0 1 0 0 1 0 0 1 0 0 1 0 0 1 0 0 1 0 0 1 0 0 1 0 0 1 0 0 1 0 0 1 0 0 1 0 0 1 0 0 1 0 0 1 0 0 1 0 0 1 0 0 1 0 0 1 0 0 1 0 0 1 0 0 1 0 0 1 0 0 1 0 0 1 0 0 1 0 0 1 0 0 1 0.3280267 0.9446685 0 0.2668288 0.9637382 -0.003302454 -0.2225205 0.974928 0 -0.09602326 0.9953791 0 -0.09602326 0.9953791 0 0.03205084 0.9994863 0 0.03205084 0.9994863 0 0.1596011 0.9871816 0 0.1596011 0.9871816 0 0.2845265 0.9586681 0 -0.3581389 0.9336683 0 0.3280267 0.9446685 0 0.4047839 0.9144124 0 0.4047839 0.9144124 0 0.5183926 0.8551427 0 0.5183926 0.8551427 0 0.6234895 0.7818317 0 0.6234895 0.7818317 0 0.7183493 0.6956827 0 0.7183493 0.6956827 0 0.8014135 0.5981106 0 0.8014135 0.5981106 0 0.8713186 0.4907177 0 0.8713186 0.4907177 0 0.9269171 0.3752663 0 0.9269171 0.3752663 0 0.9672949 0.2536544 0 0.9672949 0.2536544 0 0.9917901 0.1278768 0 0.9917901 0.1278768 0 0.9994862 0.03205305 0 0.9999984 0 0.001797854 0.9994862 -0.03205305 0 0.9917901 -0.1278768 0 0.9917901 -0.1278768 0 0.9672949 -0.2536545 0 0.9672949 -0.2536545 0 0.9269171 -0.3752663 0 0.9269171 -0.3752663 0 0.8713186 -0.4907177 0 0.8713186 -0.4907177 0 0.8014135 -0.5981106 0 0.8014135 -0.5981106 0 0.7183493 -0.6956827 0 0.7183493 -0.6956827 0 0.6234895 -0.7818317 0 0.6234895 -0.7818317 0 0.5183926 -0.8551427 0 0.5183926 -0.8551427 0 0.4047832 -0.9144127 0 0.4047832 -0.9144127 0 0.2845281 -0.9586678 0 0.2845281 -0.9586678 0 0.1596003 -0.9871817 0 0.1596003 -0.9871817 0 0.03205084 -0.9994863 0 0.03205084 -0.9994863 0 -0.09602242 -0.9953792 0 -0.09602242 -0.9953792 0 -0.2225221 -0.9749277 0 -0.2225221 -0.9749277 0 -0.3453646 -0.9384686 0 -0.3453646 -0.9384686 0 -0.4625382 -0.8865994 0 -0.4625382 -0.8865994 0 -0.5721166 -0.8201723 0 -0.5721166 -0.8201723 0 -0.672301 -0.7402779 0 -0.672301 -0.7402779 0 -0.7614459 -0.6482285 0 -0.7614459 -0.6482285 0 -0.8380881 -0.5455349 0 -0.8380881 -0.5455349 0 -0.9009689 -0.4338837 0 -0.9009689 -0.4338837 0 -0.9490557 -0.3151084 0 -0.9490557 -0.3151084 0 -0.9815592 -0.1911586 0 -0.9815592 -0.1911586 0 -0.9979454 -0.06407022 0 -0.9979454 -0.06407022 0 -0.9979454 0.06407022 0 -0.9979454 0.06407022 0 -0.9815592 0.1911586 0 -0.9815592 0.1911586 0 -0.9490557 0.3151084 0 -0.9490557 0.3151084 0 -0.9009689 0.4338835 0 -0.9009689 0.4338835 0 -0.8380881 0.5455349 0 -0.8380881 0.5455349 0 -0.7614459 0.6482285 0 -0.7614459 0.6482285 0 -0.672301 0.7402779 0 -0.672301 0.7402779 0 -0.5721172 0.8201719 0 -0.5721172 0.8201719 0 -0.4625375 0.8865997 0 -0.4625375 0.8865997 0 -0.358139 0.9336683 0 -0.3453648 0.9384666 -0.001927375 -0.297585 0.9546954 0 -0.2225205 0.974928 0 0 0 -1 0 0 -1 0 0 -1 0 0 -1 0 0 -1 0 0 -1 0 0 -1 0 0 -1 0 0 -1 0 0 -1 0 0 -1 0 0 -1 0 0 -1 0 0 -1 0 0 -1 0 0 -1 0 0 -1 0 0 -1 0 0 -1 0 0 -1 0 0 -1 0 0 -1 0 0 -1 0 0 -1 0 0 -1 0 0 -1 0 0 -1 0 0 -1 0 0 -1 0 0 -1 0 0 -1 0 0 -1 0 0 -1 0 0 -1 0 0 -1 0 0 -1 0 0 -1 0 0 -1 0 0 -1 0 0 -1 0 0 -1 0 0 -1 0 0 -1 0 0 -1 0 0 -1 0 0 -1 0 0 -1 0 0 -1 0 0 -1 0 0 -1 0 0 -1 0 0 -1 0 0 -1 0 0 -1 0 0 -1 0 0 -1 0 0 -1 0 0 -1 0 0 -1 0 0 -1 0 0 -1 0 0 -1 0 0 -1 0 0 -1 0 0 -1 0 0 -1 0 0 -1 0 0 -1 0 0 -1 0 0 -1 0 0 -1 0 0 -1 0 0 -1 0 0 -1 0 0 -1 0 0 -1 0 0 -1 0 0 -1 0 0 -1 0 0 -1 0 0 -1 0 0 -1 0 0 -1 0 0 -1 0 0 -1 0 0 -1 0 0 -1 0 0 -1 -0.999099 0.04243999 0 -0.999099 -0.04243999 0 -0.999099 -0.04243999 0 -0.9856157 -0.1690016 0 -0.9856157 -0.1690016 0 -0.9428775 -0.3331395 0 -0.9428775 -0.3331395 0 -0.8730143 -0.4876947 0 -0.8730143 -0.4876947 0 -0.7780357 -0.6282201 0 -0.7780357 -0.6282201 0 -0.6606744 -0.7506726 0 -0.6606744 -0.7506726 0 -0.5243074 -0.8515291 0 -0.5243074 -0.8515291 0 -0.3728561 -0.9278892 0 -0.3728561 -0.9278892 0 -0.2106798 -0.9775552 0 -0.2106798 -0.9775552 0 -0.04244112 -0.999099 0 -0.04244112 -0.999099 0 0.1270176 -0.9919005 0 0.1270176 -0.9919005 0 0.2928227 -0.9561668 0 0.2928227 -0.9561668 0 0.4502042 -0.8929256 0 0.4502042 -0.8929256 0 0.5946329 -0.8039974 0 0.5946329 -0.8039974 0 0.7219561 -0.6919388 0 0.7219561 -0.6919388 0 0.8285096 -0.5599749 0 0.8285096 -0.5599749 0 0.9112285 -0.4119012 0 0.9112285 -0.4119012 0 0.9677329 -0.2519784 0 0.9677329 -0.2519784 0 0.9963975 -0.08480584 0 0.9963975 -0.08480584 0 0.9963975 0.08480584 0 0.9963975 0.08480584 0 0.9677329 0.2519784 0 0.9677329 0.2519784 0 0.9112285 0.4119012 0 0.9112285 0.4119012 0 0.8285096 0.5599749 0 0.8285096 0.5599749 0 0.7219561 0.6919388 0 0.7219561 0.6919388 0 0.5946332 0.803997 0 0.5946332 0.803997 0 0.4502042 0.8929256 0 0.4502042 0.8929256 0 0.2928227 0.9561668 0 0.2928227 0.9561668 0 0.1270176 0.9919005 0 0.1270176 0.9919005 0 -0.04244112 0.999099 0 -0.04244112 0.999099 0 -0.2106798 0.9775552 0 -0.2106798 0.9775552 0 -0.3728561 0.9278892 0 -0.3728561 0.9278892 0 -0.5243076 0.851529 0 -0.5243076 0.851529 0 -0.6606749 0.7506722 0 -0.6606749 0.7506722 0 -0.7780353 0.6282206 0 -0.7780353 0.6282206 0 -0.8730145 0.4876945 0 -0.8730145 0.4876945 0 -0.9428775 0.3331398 0 -0.9428775 0.3331398 0 -0.9856157 0.1690015 0 -0.9856157 0.1690015 0 -0.999099 0.04243999 0 0 0 -1 0 0 -1 0 0 -1 0 0 -1 0 0 -1 0 0 -1 0 0 -1 0 0 -1 0 0 -1 0 0 -1 0 0 -1 0 0 -1 0 0 -1 0 0 -1 0 0 -1 0 0 -1 0 0 -1 0 0 -1 0 0 -1 0 0 -1 0 0 -1 0 0 -1 0 0 -1 0 0 -1 0 0 -1 0 0 -1 0 0 -1 0 0 -1 0 0 -1 0 0 -1 0 0 -1 0 0 -1 0 0 -1 0 0 -1 0 0 -1 0 0 -1 0 0 -1 0 0 -1 0 0 1 0 0 1 0 0 1 0 0 1 0 0 1 0 0 1 0 0 1 0 0 1 0 0 1 0 0 1 0 0 1 0 0 1 0 0 1 0 0 1 0 0 1 0 0 1 0 0 1 0 0 1 0 0 1 0 0 1 0 0 1 0 0 1 0 0 1 0 0 1 0 0 1 0 0 1 0 0 1 0 0 1 0 0 1 0 0 1 0 0 1 0 0 1 0 0 1 0 0 1 0 0 1 0 0 1 0 0 1 0 0 1 0 0 1 0 0 1 0 0 1 0 0 1 0 0 1 0 0 1 0 0 1 0 0 1 0 0 1 0 0 1 0 0 1 0 0 1 0 0 1 0 0 1 0 0 1 0 0 1 0 0 1 0 0 1 0 0 1 0 0 1 0 0 1 0 0 1 0 0 1 0 0 1 0 0 1 0 0 1 0 0 1 0 0 1 0 0 1 0 0 1 0 0 1 0 0 1 -0.1518208 0.8399677 0.5209651 -0.3098866 0.7867794 0.5338057 -0.2244507 0.8235395 0.5209651 -0.3772794 0.7567772 0.5338057 -0.2953712 0.8008442 0.5209649 -0.4418006 0.7210158 0.5338056 -0.3640475 0.7720523 0.5209652 -0.5029609 0.679766 0.5338057 -0.4299511 0.7373855 0.5209652 -0.560292 0.6333438 0.5338057 -0.4925823 0.6971069 0.5209651 -0.6133598 0.5821008 0.5338057 -0.5514632 0.6515244 0.5209648 -0.6617594 0.5264275 0.5338057 -0.6061516 0.6009787 0.5209654 -0.7051221 0.4667487 0.5338057 -0.6562212 0.5458658 0.5209648 -0.7431188 0.403517 0.5338056 -0.7013003 0.4865934 0.5209652 -0.7754594 0.3372154 0.5338056 -0.7410415 0.4236186 0.5209653 -0.8018994 0.2683445 0.5338058 -0.7751418 0.3574224 0.5209649 -0.8222354 0.1974349 0.5338056 -0.8033437 0.2885038 0.520965 -0.8363143 0.1250196 0.5338057 -0.8254317 0.2173889 0.520965 -0.844028 0.05165666 0.5338056 -0.8412371 0.1446218 0.520965 -0.8453182 -0.02210426 0.5338057 -0.8506407 0.07075232 0.520965 -0.8401752 -0.09569323 0.5338056 -0.8535703 -0.003654778 0.5209649 -0.8286379 -0.1685553 0.5338056 -0.8500032 -0.07803714 0.5209652 -0.8107941 -0.2401342 0.5338056 -0.8399677 -0.1518208 0.5209651 -0.7867794 -0.3098866 0.5338057 -0.8235394 -0.2244511 0.520965 -0.7567772 -0.3772795 0.5338057 -0.8008437 -0.2953726 0.520965 -0.7210156 -0.441801 0.5338057 -0.7720533 -0.364046 0.5209648 -0.6797668 -0.50296 0.5338056 -0.7373855 -0.4299511 0.5209652 -0.6333433 -0.5602926 0.5338058 -0.6971069 -0.4925824 0.5209649 -0.5821012 -0.6133593 0.5338057 -0.6515236 -0.551464 0.520965 -0.5264278 -0.6617592 0.5338057 -0.6009806 -0.6061498 0.5209651 -0.4667486 -0.7051221 0.5338057 -0.5458648 -0.6562218 0.520965 -0.4035166 -0.743119 0.5338057 -0.4865935 -0.7013005 0.520965 -0.3372154 -0.7754595 0.5338056 -0.4236186 -0.7410415 0.5209653 -0.2683448 -0.8018993 0.5338057 -0.3574224 -0.7751418 0.5209649 -0.1974356 -0.8222353 0.5338056 -0.2885038 -0.8033437 0.520965 -0.1250186 -0.8363144 0.5338058 -0.2173889 -0.8254317 0.520965 -0.05165666 -0.844028 0.5338056 -0.1446218 -0.8412371 0.520965 0.02210426 -0.8453182 0.5338057 -0.07075202 -0.8506407 0.5209651 0.09569323 -0.8401752 0.5338056 0.003654778 -0.8535704 0.5209648 0.1685553 -0.8286379 0.5338056 0.07803714 -0.8500032 0.5209652 0.2401339 -0.8107942 0.5338056 0.1518209 -0.8399677 0.5209652 0.3098869 -0.7867792 0.5338057 0.2244511 -0.8235394 0.520965 0.3772796 -0.7567771 0.5338057 0.295372 -0.8008438 0.5209651 0.4418002 -0.7210161 0.5338056 0.364046 -0.772053 0.5209652 0.5029606 -0.6797663 0.5338056 0.4299512 -0.7373852 0.5209654 0.5602921 -0.6333438 0.5338056 0.4925828 -0.6971066 0.5209651 0.6133602 -0.5821002 0.5338058 0.5514646 -0.6515228 0.5209654 0.6617586 -0.5264287 0.5338057 0.6061481 -0.6009829 0.5209646 0.7051219 -0.466749 0.5338056 0.6562228 -0.5458635 0.5209652 0.743119 -0.4035166 0.5338057 0.7013015 -0.4865912 0.5209655 0.7754594 -0.3372154 0.5338057 0.74104 -0.4236218 0.5209649 0.8018993 -0.2683448 0.5338057 0.775143 -0.3574189 0.5209655 0.8222352 -0.1974355 0.5338057 0.8033426 -0.2885074 0.5209646 0.8363144 -0.1250186 0.5338058 0.8254317 -0.2173889 0.520965 0.844028 -0.05165666 0.5338056 0.8412371 -0.1446218 0.520965 0.8453182 0.02210426 0.5338057 0.8506407 -0.07075202 0.5209651 0.8401752 0.09569323 0.5338056 0.8535699 0.003657758 0.5209655 0.8286378 0.1685553 0.5338057 0.8500036 0.07803422 0.5209651 0.8107942 0.2401339 0.5338057 0.8399676 0.1518208 0.5209653 0.7867792 0.3098869 0.5338059 0.8235395 0.2244507 0.5209651 0.7567771 0.3772795 0.5338057 0.8008444 0.2953708 0.5209648 0.7210161 0.4418002 0.5338056 0.7720523 0.3640475 0.5209652 0.6797658 0.5029612 0.5338057 0.7373856 0.4299511 0.520965 0.6333442 0.5602916 0.5338056 0.6971065 0.4925826 0.5209652 0.5820997 0.6133607 0.5338059 0.6515237 0.5514639 0.5209649 0.5264287 0.6617586 0.5338056 0.6009809 0.6061498 0.5209649 0.4667494 0.7051216 0.5338056 0.5458645 0.6562221 0.520965 0.4035162 0.7431192 0.5338057 0.486592 0.7013012 0.5209653 0.3372155 0.7754593 0.5338057 0.4236218 0.74104 0.5209649 0.2683445 0.8018994 0.5338058 0.357419 0.775143 0.5209655 0.1974357 0.8222352 0.5338057 0.2885074 0.8033426 0.5209646 0.1250186 0.8363144 0.5338058 0.2173889 0.8254317 0.520965 0.05165666 0.844028 0.5338055 0.1446217 0.8412372 0.520965 -0.02210426 0.8453182 0.5338057 0.07075232 0.8506407 0.520965 -0.09569323 0.8401752 0.5338057 -0.003657758 0.8535699 0.5209655 -0.1685553 0.8286378 0.5338057 -0.07803422 0.8500036 0.5209651 -0.2401341 0.810794 0.5338057 0.8393329 -0.06817996 0.5393252 0.8396864 -0.01571273 0.5428443 0.84087 -0.0514636 0.5387849 0.8410567 0.02096724 0.5405406 0.8409826 0.02199089 0.5406151 0.8384211 0.07860326 0.5393252 0.8358659 0.09520238 0.5406152 0.8283794 0.1513796 0.5393252 0.8243877 0.1676906 0.5406151 0.8120341 0.2229996 0.5393252 0.8066356 0.2389025 0.5406151 0.7895077 0.2929264 0.5393252 0.7827439 0.3082975 0.5406151 0.7609738 0.3606205 0.5393252 0.7528957 0.3753442 0.5406152 0.7266476 0.4255721 0.5393252 0.7173179 0.4395342 0.540615 0.6867914 0.4872844 0.5393251 0.6762795 0.5003813 0.540615 0.6417094 0.5452865 0.5393252 0.6300957 0.5574177 0.5406153 0.5917407 0.5991421 0.5393252 0.5791143 0.6102147 0.540615 0.5372715 0.6484347 0.5393252 0.5237287 0.6583643 0.5406152 0.4787124 0.6927935 0.5393252 0.4643555 0.701505 0.5406152 0.4165093 0.73188 0.5393252 0.4014465 0.7393078 0.5406152 0.3511363 0.7653964 0.5393252 0.3354856 0.7714822 0.540615 0.2830927 0.793087 0.5393251 0.2669683 0.7977865 0.5406151 0.2128922 0.8147424 0.5393252 0.1964232 0.818018 0.540615 0.1410732 0.8301969 0.5393251 0.1243773 0.832025 0.5406152 0.06817996 0.8393329 0.5393252 0.05139142 0.8396989 0.540615 -0.005232572 0.8420814 0.5393251 -0.02199089 0.8409826 0.5406151 -0.07860332 0.8384211 0.5393252 -0.09520238 0.8358659 0.5406152 -0.1513796 0.8283794 0.5393252 -0.1676906 0.8243878 0.540615 -0.2229995 0.8120342 0.5393252 -0.2389028 0.8066355 0.5406151 -0.2929264 0.7895077 0.5393252 -0.3082972 0.7827441 0.5406151 -0.3606205 0.7609738 0.5393252 -0.3753442 0.7528957 0.5406153 -0.4255723 0.7266474 0.5393252 -0.4395346 0.7173177 0.5406152 -0.4872844 0.6867914 0.5393251 -0.5003813 0.6762795 0.540615 -0.5452868 0.6417091 0.5393251 -0.5574182 0.6300954 0.5406152 -0.5991418 0.5917411 0.5393252 -0.6102139 0.5791152 0.540615 -0.6484348 0.5372716 0.5393251 -0.6583653 0.5237274 0.5406152 -0.6927935 0.4787124 0.5393252 -0.7015054 0.4643548 0.5406152 -0.7318799 0.4165093 0.5393252 -0.7393073 0.4014472 0.5406152 -0.7653964 0.3511363 0.5393252 -0.7714822 0.3354855 0.540615 -0.793087 0.2830927 0.5393251 -0.7977864 0.2669683 0.5406152 -0.8147424 0.2128921 0.5393252 -0.8180181 0.1964223 0.540615 -0.8301968 0.1410732 0.5393252 -0.8320249 0.1243783 0.5406151 -0.8393329 0.06817996 0.5393252 -0.839699 0.05139148 0.540615 -0.8420814 -0.005231916 0.5393251 -0.8409826 -0.02199089 0.5406152 -0.8384209 -0.07860457 0.5393252 -0.835866 -0.09520238 0.5406151 -0.8283796 -0.1513784 0.5393252 -0.8243877 -0.1676911 0.5406151 -0.8120339 -0.2230007 0.5393253 -0.8066356 -0.2389028 0.540615 -0.7895079 -0.2929258 0.5393252 -0.7827441 -0.3082972 0.5406151 -0.7609736 -0.360621 0.5393252 -0.7528957 -0.3753446 0.540615 -0.726648 -0.4255713 0.5393252 -0.7173173 -0.4395351 0.5406153 -0.6867909 -0.4872849 0.5393252 -0.6762802 -0.5003805 0.5406149 -0.6417092 -0.545287 0.5393251 -0.630095 -0.5574189 0.540615 -0.5917411 -0.5991418 0.5393252 -0.5791157 -0.6102136 0.5406149 -0.5372716 -0.6484348 0.5393251 -0.5237276 -0.6583652 0.5406152 -0.4787127 -0.6927933 0.5393252 -0.4643547 -0.7015056 0.5406152 -0.416509 -0.7318801 0.5393252 -0.4014468 -0.7393075 0.5406152 -0.3511365 -0.7653962 0.5393252 -0.3354855 -0.7714823 0.5406151 -0.2830925 -0.793087 0.5393251 -0.2669686 -0.7977863 0.5406152 -0.2128922 -0.8147424 0.5393252 -0.196423 -0.818018 0.540615 -0.1410732 -0.8301969 0.5393251 -0.1243773 -0.832025 0.5406152 -0.06817996 -0.8393329 0.5393252 -0.05139148 -0.839699 0.540615 0.00523132 -0.8420814 0.5393252 0.02199089 -0.8409825 0.5406152 0.07860451 -0.8384208 0.5393253 0.09520238 -0.8358659 0.5406152 0.1513783 -0.8283796 0.5393253 0.1676911 -0.8243876 0.5406152 0.2230008 -0.8120338 0.5393253 0.2389025 -0.8066356 0.5406151 0.2929264 -0.7895077 0.5393252 0.3082975 -0.7827439 0.5406151 0.3606205 -0.7609738 0.5393252 0.3753443 -0.7528957 0.5406152 0.4255712 -0.7266481 0.5393253 0.4395343 -0.7173178 0.5406152 0.4872851 -0.6867907 0.5393252 0.5003809 -0.6762799 0.5406149 0.5452865 -0.6417095 0.5393252 0.5574183 -0.6300953 0.5406153 0.5991421 -0.5917407 0.5393252 0.6102144 -0.5791147 0.5406149 0.6484348 -0.5372716 0.5393252 0.6583644 -0.5237288 0.540615 0.6927933 -0.4787127 0.5393252 0.7015053 -0.4643551 0.5406151 0.7318801 -0.416509 0.5393252 0.7393075 -0.4014468 0.5406152 0.7653962 -0.3511365 0.5393252 0.7714822 -0.3354855 0.540615 0.793087 -0.2830925 0.5393251 0.7977864 -0.2669686 0.540615 0.8147424 -0.2128923 0.5393252 0.818018 -0.196423 0.540615 0.8301969 -0.1410732 0.5393251 0.832025 -0.1243773 0.5406152 -1 0 0 -1 0 0 -0.2079114 0.9781476 0 -0.2079114 0.9781476 0 -0.1045292 0.9945218 0 -0.1045292 0.9945218 0 0 1 0 0 1 0 0.1045292 0.9945218 0 0.1045292 0.9945218 0 0.2079114 0.9781476 0 0.2079114 0.9781476 0 1 0 0 1 0 0 0 0 -1 0 0 -1 0 0 -1 0 0 -1 0 0 -1 0 0 -1 0 0 -1 0 0 -1 0 0 -1 0 0 -1 0 0 -1</float_array>
          <technique_common>
            <accessor source="#other_side-mesh-normals-array" count="814" stride="3">
              <param name="X" type="float"/>
              <param name="Y" type="float"/>
              <param name="Z" type="float"/>
            </accessor>
          </technique_common>
        </source>
        <vertices id="other_side-mesh-vertices">
          <input semantic="POSITION" source="#other_side-mesh-positions"/>
        </vertices>
        <triangles count="814">
          <input semantic="VERTEX" source="#other_side-mesh-vertices" offset="0"/>
          <input semantic="NORMAL" source="#other_side-mesh-normals" offset="1"/>
          <p>0 0 1 0 2 0 3 1 4 1 5 1 5 2 4 2 6 2 5 3 6 3 7 3 6 4 8 4 7 4 7 5 8 5 9 5 7 6 9 6 10 6 11 7 2 7 12 7 12 8 2 8 13 8 11 9 14 9 2 9 2 10 14 10 15 10 2 11 15 11 16 11 16 12 15 12 17 12 16 13 17 13 18 13 18 14 19 14 16 14 16 15 19 15 20 15 16 16 20 16 21 16 22 17 23 17 24 17 24 18 23 18 25 18 24 19 25 19 26 19 25 20 27 20 26 20 26 21 27 21 28 21 26 22 28 22 29 22 29 23 28 23 30 23 29 24 30 24 3 24 3 25 30 25 31 25 3 26 31 26 4 26 32 27 33 27 2 27 2 28 33 28 34 28 2 29 34 29 13 29 35 30 36 30 37 30 37 31 36 31 38 31 37 32 38 32 39 32 40 33 41 33 16 33 16 34 41 34 42 34 16 35 42 35 2 35 2 36 42 36 43 36 2 37 43 37 0 37 9 38 44 38 10 38 10 39 44 39 45 39 10 40 45 40 46 40 47 41 48 41 49 41 49 42 48 42 50 42 49 43 50 43 51 43 52 44 53 44 54 44 54 45 53 45 55 45 54 46 55 46 35 46 35 47 55 47 56 47 35 48 56 48 36 48 45 49 57 49 46 49 46 50 57 50 58 50 46 51 58 51 59 51 59 52 58 52 60 52 59 53 60 53 61 53 61 54 60 54 62 54 61 55 62 55 47 55 47 56 62 56 63 56 47 57 63 57 48 57 50 58 64 58 51 58 51 59 64 59 65 59 51 60 65 60 66 60 66 61 65 61 67 61 66 62 67 62 68 62 67 63 69 63 68 63 68 64 69 64 70 64 68 65 70 65 71 65 71 66 70 66 72 66 71 67 72 67 73 67 74 68 75 68 76 68 76 69 75 69 77 69 76 70 77 70 52 70 52 71 77 71 78 71 52 72 78 72 53 72 21 73 79 73 16 73 16 74 79 74 80 74 16 75 80 75 81 75 81 76 80 76 82 76 81 77 82 77 83 77 83 78 82 78 84 78 83 79 84 79 22 79 22 80 84 80 85 80 22 81 85 81 23 81 72 82 86 82 73 82 73 83 86 83 87 83 73 84 87 84 88 84 88 85 87 85 89 85 88 86 89 86 90 86 38 87 91 87 39 87 39 88 91 88 92 88 39 89 92 89 93 89 93 90 92 90 94 90 93 91 94 91 95 91 2 92 96 92 32 92 32 93 96 93 97 93 32 94 97 94 98 94 89 95 99 95 90 95 90 96 99 96 100 96 90 97 100 97 101 97 101 98 100 98 102 98 101 99 102 99 103 99 94 100 104 100 95 100 95 101 104 101 105 101 95 102 105 102 106 102 106 103 105 103 32 103 106 104 32 104 107 104 107 105 32 105 98 105 102 106 108 106 103 106 103 107 108 107 109 107 103 108 109 108 110 108 110 109 109 109 111 109 110 110 111 110 112 110 111 111 113 111 112 111 112 112 113 112 114 112 112 113 114 113 115 113 115 114 114 114 116 114 115 115 116 115 117 115 116 116 118 116 117 116 117 117 118 117 119 117 117 118 119 118 120 118 120 119 119 119 121 119 120 120 121 120 122 120 122 121 121 121 123 121 122 122 123 122 74 122 74 123 123 123 124 123 74 124 124 124 75 124 125 125 16 125 81 125 126 126 125 126 127 126 128 127 129 127 130 127 130 128 129 128 131 128 130 129 131 129 132 129 132 130 131 130 133 130 132 131 133 131 134 131 134 132 133 132 126 132 134 133 126 133 135 133 135 134 126 134 127 134 96 135 2 135 136 135 125 136 81 136 127 136 127 137 81 137 83 137 127 138 83 138 137 138 137 139 83 139 22 139 137 140 22 140 138 140 138 141 22 141 24 141 138 142 24 142 139 142 139 143 24 143 26 143 139 144 26 144 140 144 140 145 26 145 29 145 140 146 29 146 141 146 141 147 29 147 3 147 141 148 3 148 142 148 142 149 3 149 5 149 142 150 5 150 143 150 143 151 5 151 7 151 143 152 7 152 144 152 144 153 7 153 10 153 144 154 10 154 145 154 145 155 10 155 146 155 146 156 10 156 46 156 146 157 46 157 147 157 147 158 46 158 59 158 147 159 59 159 148 159 148 160 59 160 61 160 148 161 61 161 149 161 149 162 61 162 47 162 149 163 47 163 150 163 150 164 47 164 49 164 150 165 49 165 151 165 151 166 49 166 51 166 151 167 51 167 152 167 152 168 51 168 66 168 152 169 66 169 153 169 153 170 66 170 68 170 153 171 68 171 154 171 154 172 68 172 71 172 154 173 71 173 155 173 155 174 71 174 73 174 155 175 73 175 156 175 156 176 73 176 88 176 156 177 88 177 157 177 157 178 88 178 90 178 157 179 90 179 158 179 158 180 90 180 101 180 158 181 101 181 159 181 159 182 101 182 103 182 159 183 103 183 160 183 160 184 103 184 110 184 160 185 110 185 161 185 161 186 110 186 112 186 161 187 112 187 162 187 162 188 112 188 115 188 162 189 115 189 163 189 163 190 115 190 117 190 163 191 117 191 164 191 164 192 117 192 120 192 164 193 120 193 165 193 165 194 120 194 122 194 165 195 122 195 166 195 166 196 122 196 74 196 166 197 74 197 167 197 167 198 74 198 76 198 167 199 76 199 168 199 168 200 76 200 52 200 168 201 52 201 169 201 169 202 52 202 54 202 169 203 54 203 170 203 170 204 54 204 35 204 170 205 35 205 171 205 171 206 35 206 37 206 171 207 37 207 172 207 172 208 37 208 39 208 172 209 39 209 173 209 173 210 39 210 93 210 173 211 93 211 174 211 174 212 93 212 95 212 174 213 95 213 175 213 175 214 95 214 106 214 175 215 106 215 176 215 176 216 106 216 107 216 176 217 107 217 177 217 177 218 107 218 98 218 177 219 98 219 178 219 178 220 98 220 97 220 178 221 97 221 179 221 179 222 97 222 96 222 179 223 96 223 180 223 180 224 96 224 136 224 180 225 136 225 128 225 128 226 136 226 181 226 128 227 181 227 129 227 182 228 159 228 183 228 183 229 159 229 160 229 183 230 160 230 184 230 184 231 160 231 161 231 184 232 161 232 185 232 161 233 162 233 185 233 185 234 162 234 163 234 185 235 163 235 186 235 186 236 163 236 164 236 186 237 164 237 187 237 187 238 164 238 165 238 187 239 165 239 188 239 189 240 147 240 190 240 190 241 147 241 148 241 190 242 148 242 191 242 191 243 148 243 149 243 191 244 149 244 192 244 193 245 145 245 189 245 189 246 145 246 146 246 189 247 146 247 147 247 149 248 150 248 192 248 192 249 150 249 151 249 192 250 151 250 194 250 194 251 151 251 152 251 194 252 152 252 195 252 195 253 152 253 153 253 195 254 153 254 196 254 197 255 141 255 198 255 198 256 141 256 142 256 198 257 142 257 199 257 199 258 142 258 143 258 199 259 143 259 193 259 193 260 143 260 144 260 193 261 144 261 145 261 200 262 132 262 201 262 201 263 132 263 134 263 201 264 134 264 202 264 202 265 134 265 135 265 202 266 135 266 203 266 204 267 179 267 205 267 205 268 179 268 180 268 205 269 180 269 206 269 206 270 180 270 128 270 206 271 128 271 200 271 200 272 128 272 130 272 200 273 130 273 132 273 153 274 154 274 196 274 196 275 154 275 155 275 196 276 155 276 207 276 207 277 155 277 156 277 207 278 156 278 208 278 208 279 156 279 157 279 208 280 157 280 182 280 182 281 157 281 158 281 182 282 158 282 159 282 135 283 127 283 203 283 203 284 127 284 137 284 203 285 137 285 209 285 209 286 137 286 138 286 209 287 138 287 210 287 210 288 138 288 139 288 210 289 139 289 197 289 197 290 139 290 140 290 197 291 140 291 141 291 211 292 175 292 212 292 212 293 175 293 176 293 212 294 176 294 213 294 213 295 176 295 177 295 213 296 177 296 204 296 204 297 177 297 178 297 204 298 178 298 179 298 165 299 166 299 188 299 188 300 166 300 167 300 188 301 167 301 214 301 214 302 167 302 168 302 214 303 168 303 215 303 215 304 168 304 169 304 215 305 169 305 216 305 216 306 169 306 170 306 216 307 170 307 217 307 217 308 170 308 171 308 217 309 171 309 218 309 218 310 171 310 172 310 218 311 172 311 219 311 219 312 172 312 173 312 219 313 173 313 211 313 211 314 173 314 174 314 211 315 174 315 175 315 220 316 221 316 217 316 217 317 221 317 216 317 221 318 222 318 216 318 216 319 222 319 223 319 216 320 223 320 215 320 215 321 223 321 224 321 215 322 224 322 214 322 214 323 224 323 225 323 214 324 225 324 188 324 188 325 225 325 226 325 188 326 226 326 187 326 187 327 226 327 227 327 187 328 227 328 186 328 186 329 227 329 228 329 186 330 228 330 185 330 185 331 228 331 229 331 185 332 229 332 184 332 184 333 229 333 230 333 184 334 230 334 183 334 183 335 230 335 231 335 183 336 231 336 182 336 182 337 231 337 232 337 182 338 232 338 208 338 208 339 232 339 233 339 208 340 233 340 207 340 207 341 233 341 234 341 207 342 234 342 196 342 196 343 234 343 235 343 196 344 235 344 195 344 195 345 235 345 236 345 195 346 236 346 194 346 194 347 236 347 237 347 194 348 237 348 192 348 192 349 237 349 238 349 192 350 238 350 191 350 191 351 238 351 239 351 191 352 239 352 190 352 190 353 239 353 240 353 190 354 240 354 189 354 189 355 240 355 241 355 189 356 241 356 193 356 193 357 241 357 242 357 193 358 242 358 199 358 199 359 242 359 243 359 199 360 243 360 198 360 198 361 243 361 244 361 198 362 244 362 197 362 197 363 244 363 245 363 197 364 245 364 210 364 210 365 245 365 246 365 210 366 246 366 209 366 209 367 246 367 247 367 209 368 247 368 203 368 203 369 247 369 248 369 203 370 248 370 202 370 202 371 248 371 249 371 202 372 249 372 201 372 201 373 249 373 250 373 201 374 250 374 200 374 200 375 250 375 251 375 200 376 251 376 206 376 206 377 251 377 252 377 206 378 252 378 205 378 205 379 252 379 253 379 205 380 253 380 204 380 204 381 253 381 254 381 204 382 254 382 213 382 213 383 254 383 255 383 213 384 255 384 212 384 212 385 255 385 256 385 212 386 256 386 211 386 211 387 256 387 257 387 211 388 257 388 219 388 219 389 257 389 220 389 219 390 220 390 218 390 218 391 220 391 217 391 221 392 220 392 258 392 221 393 258 393 222 393 225 394 224 394 258 394 258 395 224 395 223 395 258 396 223 396 222 396 228 397 227 397 258 397 258 398 227 398 226 398 258 399 226 399 225 399 231 400 230 400 258 400 258 401 230 401 229 401 258 402 229 402 228 402 234 403 233 403 258 403 258 404 233 404 232 404 258 405 232 405 231 405 237 406 236 406 258 406 258 407 236 407 235 407 258 408 235 408 234 408 240 409 239 409 258 409 258 410 239 410 238 410 258 411 238 411 237 411 243 412 242 412 258 412 258 413 242 413 241 413 258 414 241 414 240 414 246 415 245 415 258 415 258 416 245 416 244 416 258 417 244 417 243 417 249 418 248 418 258 418 258 419 248 419 247 419 258 420 247 420 246 420 252 421 251 421 258 421 258 422 251 422 250 422 258 423 250 423 249 423 255 424 254 424 258 424 258 425 254 425 253 425 258 426 253 426 252 426 220 427 257 427 258 427 258 428 257 428 256 428 258 429 256 429 255 429 259 430 260 430 261 430 262 431 263 431 264 431 265 432 264 432 266 432 266 433 264 433 267 433 268 434 269 434 270 434 271 435 272 435 273 435 273 436 272 436 274 436 273 437 274 437 275 437 276 438 277 438 278 438 278 439 277 439 279 439 280 440 281 440 282 440 276 441 278 441 264 441 264 442 278 442 283 442 264 443 283 443 262 443 263 444 284 444 264 444 264 445 284 445 285 445 264 446 285 446 267 446 275 447 286 447 273 447 273 448 286 448 287 448 273 449 287 449 288 449 265 450 289 450 264 450 264 451 289 451 273 451 264 452 273 452 290 452 290 453 273 453 291 453 278 454 292 454 293 454 294 455 295 455 296 455 281 456 297 456 282 456 282 457 297 457 298 457 282 458 298 458 299 458 271 459 273 459 260 459 260 460 273 460 300 460 260 461 300 461 301 461 301 462 302 462 260 462 260 463 302 463 303 463 260 464 303 464 304 464 259 465 261 465 269 465 269 466 261 466 305 466 269 467 305 467 270 467 306 468 307 468 273 468 273 469 307 469 308 469 273 470 308 470 291 470 279 471 309 471 278 471 278 472 309 472 310 472 278 473 310 473 311 473 299 474 312 474 282 474 282 475 312 475 313 475 282 476 313 476 314 476 293 477 315 477 278 477 278 478 315 478 282 478 278 479 282 479 316 479 316 480 282 480 314 480 304 481 317 481 260 481 260 482 317 482 318 482 260 483 318 483 261 483 288 484 319 484 273 484 273 485 319 485 320 485 273 486 320 486 306 486 311 487 321 487 278 487 278 488 321 488 322 488 278 489 322 489 292 489 294 490 296 490 282 490 282 491 296 491 323 491 282 492 323 492 280 492 324 493 325 493 326 493 327 494 328 494 270 494 270 495 328 495 329 495 270 496 329 496 268 496 324 497 326 497 270 497 270 498 326 498 330 498 270 499 330 499 327 499 295 500 331 500 296 500 296 501 331 501 332 501 296 502 332 502 323 502 323 503 332 503 333 503 323 504 333 504 280 504 280 505 333 505 334 505 280 506 334 506 281 506 281 507 334 507 335 507 281 508 335 508 297 508 297 509 335 509 336 509 297 510 336 510 298 510 298 511 336 511 337 511 298 512 337 512 299 512 299 513 337 513 338 513 299 514 338 514 312 514 312 515 338 515 339 515 312 516 339 516 313 516 313 517 339 517 340 517 313 518 340 518 314 518 314 519 340 519 341 519 314 520 341 520 316 520 316 521 341 521 342 521 316 522 342 522 278 522 278 523 342 523 343 523 278 524 343 524 283 524 283 525 343 525 344 525 283 526 344 526 262 526 262 527 344 527 345 527 262 528 345 528 263 528 263 529 345 529 346 529 263 530 346 530 284 530 284 531 346 531 347 531 284 532 347 532 285 532 285 533 347 533 348 533 285 534 348 534 267 534 267 535 348 535 349 535 267 536 349 536 266 536 266 537 349 537 350 537 266 538 350 538 265 538 265 539 350 539 351 539 265 540 351 540 289 540 289 541 351 541 352 541 289 542 352 542 273 542 273 543 352 543 353 543 273 544 353 544 300 544 300 545 353 545 354 545 300 546 354 546 301 546 301 547 354 547 355 547 301 548 355 548 302 548 302 549 355 549 356 549 302 550 356 550 303 550 303 551 356 551 357 551 303 552 357 552 304 552 304 553 357 553 358 553 304 554 358 554 317 554 317 555 358 555 359 555 317 556 359 556 318 556 318 557 359 557 360 557 318 558 360 558 261 558 261 559 360 559 361 559 261 560 361 560 305 560 305 561 361 561 362 561 305 562 362 562 270 562 270 563 362 563 363 563 270 564 363 564 324 564 324 565 363 565 364 565 324 566 364 566 325 566 325 567 364 567 365 567 325 568 365 568 326 568 326 569 365 569 366 569 326 570 366 570 330 570 330 571 366 571 367 571 330 572 367 572 327 572 327 573 367 573 368 573 327 574 368 574 328 574 328 575 368 575 369 575 328 576 369 576 329 576 329 577 369 577 370 577 329 578 370 578 268 578 268 579 370 579 371 579 268 580 371 580 269 580 269 581 371 581 372 581 269 582 372 582 259 582 259 583 372 583 373 583 259 584 373 584 260 584 260 585 373 585 374 585 260 586 374 586 271 586 271 587 374 587 375 587 271 588 375 588 272 588 272 589 375 589 376 589 272 590 376 590 274 590 274 591 376 591 377 591 274 592 377 592 275 592 275 593 377 593 378 593 275 594 378 594 286 594 286 595 378 595 379 595 286 596 379 596 287 596 287 597 379 597 380 597 287 598 380 598 288 598 288 599 380 599 381 599 288 600 381 600 319 600 319 601 381 601 382 601 319 602 382 602 320 602 320 603 382 603 383 603 320 604 383 604 306 604 306 605 383 605 384 605 306 606 384 606 307 606 307 607 384 607 385 607 307 608 385 608 308 608 308 609 385 609 386 609 308 610 386 610 291 610 291 611 386 611 387 611 291 612 387 612 290 612 290 613 387 613 388 613 290 614 388 614 264 614 264 615 388 615 389 615 264 616 389 616 276 616 276 617 389 617 390 617 276 618 390 618 277 618 277 619 390 619 391 619 277 620 391 620 279 620 279 621 391 621 392 621 279 622 392 622 309 622 309 623 392 623 393 623 309 624 393 624 310 624 310 625 393 625 394 625 310 626 394 626 311 626 311 627 394 627 395 627 311 628 395 628 321 628 321 629 395 629 396 629 321 630 396 630 322 630 322 631 396 631 397 631 322 632 397 632 292 632 292 633 397 633 398 633 292 634 398 634 293 634 293 635 398 635 399 635 293 636 399 636 315 636 315 637 399 637 400 637 315 638 400 638 282 638 282 639 400 639 401 639 282 640 401 640 294 640 294 641 401 641 402 641 294 642 402 642 295 642 295 643 402 643 331 643 58 644 57 644 380 644 380 645 57 645 45 645 380 646 45 646 381 646 381 647 45 647 44 647 381 648 44 648 382 648 382 649 44 649 9 649 382 650 9 650 383 650 383 651 9 651 8 651 383 652 8 652 384 652 384 653 8 653 6 653 384 654 6 654 385 654 385 655 6 655 4 655 385 656 4 656 386 656 386 657 4 657 31 657 386 658 31 658 387 658 387 659 31 659 30 659 387 660 30 660 388 660 388 661 30 661 28 661 388 662 28 662 389 662 389 663 28 663 27 663 389 664 27 664 390 664 390 665 27 665 25 665 390 666 25 666 391 666 391 667 25 667 23 667 391 668 23 668 392 668 392 669 23 669 85 669 392 670 85 670 393 670 393 671 85 671 84 671 393 672 84 672 394 672 394 673 84 673 82 673 394 674 82 674 395 674 395 675 82 675 80 675 395 676 80 676 396 676 396 677 80 677 79 677 396 678 79 678 397 678 397 679 79 679 21 679 397 680 21 680 398 680 398 681 21 681 20 681 398 682 20 682 399 682 399 683 20 683 19 683 399 684 19 684 400 684 400 685 19 685 18 685 400 686 18 686 401 686 401 687 18 687 17 687 401 688 17 688 402 688 402 689 17 689 15 689 402 690 15 690 331 690 331 691 15 691 14 691 331 692 14 692 332 692 332 693 14 693 11 693 332 694 11 694 333 694 333 695 11 695 12 695 333 696 12 696 334 696 334 697 12 697 13 697 334 698 13 698 335 698 335 699 13 699 34 699 335 700 34 700 336 700 336 701 34 701 33 701 336 702 33 702 337 702 337 703 33 703 32 703 337 704 32 704 338 704 338 705 32 705 105 705 338 706 105 706 339 706 339 707 105 707 104 707 339 708 104 708 340 708 340 709 104 709 94 709 340 710 94 710 341 710 341 711 94 711 92 711 341 712 92 712 342 712 342 713 92 713 91 713 342 714 91 714 343 714 343 715 91 715 38 715 343 716 38 716 344 716 344 717 38 717 36 717 344 718 36 718 345 718 345 719 36 719 56 719 345 720 56 720 346 720 346 721 56 721 55 721 346 722 55 722 347 722 347 723 55 723 53 723 347 724 53 724 348 724 348 725 53 725 78 725 348 726 78 726 349 726 349 727 78 727 77 727 349 728 77 728 350 728 350 729 77 729 75 729 350 730 75 730 351 730 351 731 75 731 124 731 351 732 124 732 352 732 352 733 124 733 123 733 352 734 123 734 353 734 353 735 123 735 121 735 353 736 121 736 354 736 354 737 121 737 119 737 354 738 119 738 355 738 355 739 119 739 118 739 355 740 118 740 356 740 356 741 118 741 116 741 356 742 116 742 357 742 357 743 116 743 114 743 357 744 114 744 358 744 358 745 114 745 113 745 358 746 113 746 359 746 359 747 113 747 111 747 359 748 111 748 360 748 360 749 111 749 109 749 360 750 109 750 361 750 361 751 109 751 108 751 361 752 108 752 362 752 362 753 108 753 102 753 362 754 102 754 363 754 363 755 102 755 100 755 363 756 100 756 364 756 364 757 100 757 99 757 364 758 99 758 365 758 365 759 99 759 89 759 365 760 89 760 366 760 366 761 89 761 87 761 366 762 87 762 367 762 367 763 87 763 86 763 367 764 86 764 368 764 368 765 86 765 72 765 368 766 72 766 369 766 369 767 72 767 70 767 369 768 70 768 370 768 370 769 70 769 69 769 370 770 69 770 371 770 371 771 69 771 67 771 371 772 67 772 372 772 372 773 67 773 65 773 372 774 65 774 373 774 373 775 65 775 64 775 373 776 64 776 374 776 374 777 64 777 50 777 374 778 50 778 375 778 375 779 50 779 48 779 375 780 48 780 376 780 376 781 48 781 63 781 376 782 63 782 377 782 377 783 63 783 62 783 377 784 62 784 378 784 378 785 62 785 60 785 378 786 60 786 379 786 379 787 60 787 58 787 379 788 58 788 380 788 403 789 136 789 1 789 1 790 136 790 2 790 403 791 1 791 0 791 403 792 0 792 404 792 404 793 0 793 43 793 404 794 43 794 405 794 405 795 43 795 42 795 405 796 42 796 406 796 406 797 42 797 41 797 406 798 41 798 407 798 407 799 41 799 40 799 407 800 40 800 408 800 125 801 408 801 16 801 16 802 408 802 40 802 408 803 125 803 126 803 408 804 126 804 407 804 407 805 126 805 133 805 407 806 133 806 406 806 406 807 133 807 405 807 405 808 133 808 131 808 405 809 131 809 404 809 404 810 131 810 129 810 404 811 129 811 403 811 403 812 129 812 181 812 403 813 181 813 136 813</p>
        </triangles>
      </mesh>
    </geometry>
  </library_geometries>
  <library_visual_scenes>
    <visual_scene id="Scene" name="Scene">
      <node id="other_side" name="other side" type="NODE">
        <matrix sid="transform">0.001 0 0 -5.85703e-5 0 0.001 0 -0.001186454 0 0 0.001 -0.01550338 0 0 0 1</matrix>
        <instance_geometry url="#other_side-mesh" name="other side"/>
      </node>
      <node id="Camera" name="Camera" type="NODE">
        <matrix sid="transform">0.6859207 -0.3240135 0.6515582 7.358891 0.7276763 0.3054208 -0.6141704 -6.925791 0 0.8953956 0.4452714 4.958309 0 0 0 1</matrix>
        <instance_camera url="#Camera-camera"/>
      </node>
      <node id="Light" name="Light" type="NODE">
        <matrix sid="transform">-0.2908646 -0.7711008 0.5663932 4.076245 0.9551712 -0.1998834 0.2183912 1.005454 -0.05518906 0.6045247 0.7946723 5.903862 0 0 0 1</matrix>
        <instance_light url="#Light-light"/>
      </node>
    </visual_scene>
  </library_visual_scenes>
  <scene>
    <instance_visual_scene url="#Scene"/>
  </scene>
</COLLADA>