<?xml version="1.0" encoding="utf-8"?>
<COLLADA xmlns="http://www.collada.org/2005/11/COLLADASchema" version="1.4.1" xmlns:xsi="http://www.w3.org/2001/XMLSchema-instance">
  <asset>
    <contributor>
      <author>Blender User</author>
      <authoring_tool>Blender 4.5.3 LTS commit date:2025-09-08, commit time:12:46, hash:67807e1800cc</authoring_tool>
    </contributor>
    <created>2025-09-24T10:06:35</created>
    <modified>2025-09-24T10:06:35</modified>
    <unit name="meter" meter="1"/>
    <up_axis>Z_UP</up_axis>
  </asset>
  <library_cameras>
    <camera id="Camera-camera" name="Camera">
      <optics>
        <technique_common>
          <perspective>
            <xfov sid="xfov">39.59775</xfov>
            <aspect_ratio>1.777778</aspect_ratio>
            <znear sid="znear">0.1</znear>
            <zfar sid="zfar">100</zfar>
          </perspective>
        </technique_common>
      </optics>
      <extra>
        <technique profile="blender">
          <shiftx sid="shiftx" type="float">0</shiftx>
          <shifty sid="shifty" type="float">0</shifty>
          <dof_distance sid="dof_distance" type="float">10</dof_distance>
        </technique>
      </extra>
    </camera>
  </library_cameras>
  <library_lights>
    <light id="Light-light" name="Light">
      <technique_common>
        <point>
          <color sid="color">1000 1000 1000</color>
          <constant_attenuation>1</constant_attenuation>
          <linear_attenuation>0</linear_attenuation>
          <quadratic_attenuation>0</quadratic_attenuation>
        </point>
      </technique_common>
      <extra>
        <technique profile="blender">
          <type sid="type" type="int">0</type>
          <flag sid="flag" type="int">0</flag>
          <mode sid="mode" type="int">2097153</mode>
          <red sid="red" type="float">1</red>
          <green sid="green" type="float">1</green>
          <blue sid="blue" type="float">1</blue>
          <energy sid="blender_energy" type="float">1000</energy>
          <spotsize sid="spotsize" type="float">75</spotsize>
          <spotblend sid="spotblend" type="float">0.15</spotblend>
          <clipsta sid="clipsta" type="float">0.04999995</clipsta>
          <clipend sid="clipend" type="float">40</clipend>
          <radius sid="radius" type="float">0.1</radius>
          <area_shape sid="area_shape" type="int">1</area_shape>
          <area_size sid="area_size" type="float">0.1</area_size>
          <area_sizey sid="area_sizey" type="float">0.1</area_sizey>
          <area_sizez sid="area_sizez" type="float">1</area_sizez>
        </technique>
      </extra>
    </light>
  </library_lights>
  <library_images/>
  <library_geometries>
    <geometry id="notch_ring-mesh" name="notch ring">
      <mesh>
        <source id="notch_ring-mesh-positions">
          <float_array id="notch_ring-mesh-positions-array" count="1512">49.91721 3.042973 44.78717 49.99875 0.1885299 44.78717 49.99875 0.1885299 -5.21283 49.91721 -2.665909 -5.21283 49.91721 -2.665909 44.78717 49.26644 -8.337578 44.78717 49.26644 -8.337578 -5.21283 47.9734 -13.8981 44.78717 47.9734 -13.8981 -5.21283 46.05493 -19.27498 44.78717 46.05493 -19.27498 -5.21283 43.53606 -24.39812 44.78717 43.53606 -24.39812 -5.21283 40.4496 -29.20073 44.78717 40.4496 -29.20073 -5.21283 36.83581 -33.62022 44.78717 36.83581 -33.62022 -5.21283 32.74179 -37.59894 44.78717 32.74179 -37.59894 -5.21283 28.22091 -41.08506 44.78717 28.22091 -41.08506 -5.21283 23.33212 -44.03311 44.78717 23.33212 -44.03311 -5.21283 18.13914 -46.40467 44.78717 18.13914 -46.40467 -5.21283 12.70967 -48.16881 44.78717 12.70967 -48.16881 -5.21283 7.114494 -49.30254 44.78717 7.114494 -49.30254 -5.21283 1.426556 -49.79108 44.78717 1.426556 -49.79108 -5.21283 -4.279999 -49.62805 44.78717 -4.279999 -49.62805 -5.21283 -9.930771 -48.8156 44.78717 -9.930771 -48.8156 -5.21283 -15.45209 -47.36429 44.78717 -15.45209 -47.36429 -5.21283 -20.772 -45.29307 44.78717 -20.772 -45.29307 -5.21283 -25.82112 -42.62892 44.78717 -25.82112 -42.62892 -5.21283 -30.53364 -39.40658 44.78717 -30.53364 -39.40658 -5.21283 -34.84812 -35.66806 44.78717 -34.84812 -35.66806 -5.21283 -38.70833 -31.46209 44.78717 -38.70833 -31.46209 -5.21283 -42.06392 -26.84351 44.78717 -42.06392 -26.84351 -5.21283 -44.87117 -21.87252 44.78717 -44.87117 -21.87252 -5.21283 -47.09346 -16.61394 44.78717 -47.09346 -16.61394 -5.21283 -48.70184 -11.13631 44.78717 -48.70184 -11.13631 -5.21283 -49.67533 -5.51104 44.78717 -49.67533 -5.51104 -5.21283 -50.00125 0.1885299 44.78717 -50.00125 0.1885299 -5.21283 -49.67533 5.8881 44.78717 -49.67533 5.8881 -5.21283 -48.70184 11.51337 44.78717 -48.70184 11.51337 -5.21283 -47.09346 16.991 44.78717 -47.09346 16.991 -5.21283 -44.87117 22.24959 44.78717 -44.87117 22.24959 -5.21283 -42.06392 27.22057 44.78717 -42.06392 27.22057 -5.21283 -38.70833 31.83915 44.78717 -38.70833 31.83915 -5.21283 -34.84812 36.04512 44.78717 -34.84812 36.04512 -5.21283 -30.53364 39.78364 44.78717 -30.53364 39.78364 -5.21283 -25.82112 43.00598 44.78717 -25.82112 43.00598 -5.21283 -20.772 45.67013 44.78717 -20.772 45.67013 -5.21283 -15.45209 47.74135 44.78717 -15.45209 47.74135 -5.21283 -9.930771 49.19266 44.78717 -9.930771 49.19266 -5.21283 -4.279999 50.00512 44.78717 -4.279999 50.00512 -5.21283 1.426556 50.16814 44.78717 1.426556 50.16814 -5.21283 7.114494 49.6796 44.78717 7.114494 49.6796 -5.21283 12.70967 48.54587 44.78717 12.70967 48.54587 -5.21283 18.13914 46.78173 44.78717 18.13914 46.78173 -5.21283 23.33212 44.41018 44.78717 23.33212 44.41018 -5.21283 28.22091 41.46213 44.78717 28.22091 41.46213 -5.21283 32.74179 37.976 44.78717 32.74179 37.976 -5.21283 36.83581 33.99728 44.78717 36.83581 33.99728 -5.21283 40.4496 29.57779 44.78717 40.4496 29.57779 -5.21283 43.53606 24.77518 44.78717 43.53606 24.77518 -5.21283 46.05493 19.65204 44.78717 46.05493 19.65204 -5.21283 47.9734 14.27516 44.78717 47.9734 14.27516 -5.21283 49.26644 8.714642 44.78717 49.26644 8.714642 -5.21283 49.91721 3.042973 -5.21283 -10.87165 40.75741 44.78717 -6.571495 41.67144 44.78717 10.86915 40.75741 44.78717 10.86915 33.45765 44.78717 15.23413 31.69859 44.78717 -19.32614 29.36984 44.78717 -23.06629 26.5135 44.78717 -26.38942 23.18123 44.78717 -29.23548 19.43326 44.78717 -31.553 15.33736 44.78717 -33.30008 10.96757 44.78717 -34.44514 6.402908 44.78717 -10.87165 33.45765 44.78717 -15.23662 31.69859 44.78717 32.75829 -12.13271 44.78717 34.11511 -7.626461 44.78717 34.85513 -2.978916 44.78717 6.569 41.67144 44.78717 2.196865 42.13097 44.78717 -2.199356 42.13097 44.78717 17.9408 -29.86281 44.78717 21.81016 -27.18413 44.78717 25.28519 -24.01056 44.78717 28.30305 -20.39949 44.78717 30.80919 -16.41621 44.78717 31.5505 15.33736 44.78717 29.23299 19.43326 44.78717 26.38693 23.18123 44.78717 23.06379 26.5135 44.78717 19.32365 29.36984 44.78717 34.96497 1.725895 44.78717 34.44264 6.402908 44.78717 33.29759 10.96757 44.78717 -34.96747 1.725895 44.78717 -34.85763 -2.978916 44.78717 -34.1176 -7.626461 44.78717 -32.76078 -12.13271 44.78717 -30.81168 -16.41621 44.78717 -9.307244 -33.55163 44.78717 -4.69669 -34.49508 44.78717 -0.001247406 -34.81147 44.78717 4.694199 -34.49508 44.78717 9.304753 -33.55163 44.78717 13.74706 -31.99818 44.78717 -28.30554 -20.39949 44.78717 -25.28768 -24.01056 44.78717 -21.81266 -27.18413 44.78717 -17.9433 -29.86281 44.78717 -13.74955 -31.99818 44.78717 -32.10364 -13.75551 -5.21283 -33.70335 -9.254357 -5.21283 -34.67525 -4.577301 -5.21283 -35.00125 0.1885299 -5.21283 -34.67525 4.954365 -5.21283 -33.70335 9.631417 -5.21283 -32.10364 14.13257 -5.21283 -29.90593 18.37397 -5.21283 -27.15114 22.27661 -5.21283 -23.89061 25.76779 -5.21283 -20.18506 28.78248 -5.21283 -16.10352 -30.88745 -5.21283 -20.18506 -28.40542 -5.21283 -23.89061 -25.39073 -5.21283 -27.15114 -21.89955 -5.21283 -29.90593 -17.99691 -5.21283 7.119713 -34.07941 -5.21283 2.387238 -34.72987 -5.21283 -2.389732 -34.72987 -5.21283 -7.122208 -34.07941 -5.21283 -11.72203 -32.7906 -5.21283 27.14865 -21.89955 -5.21283 23.88811 -25.39073 -5.21283 20.18257 -28.40542 -5.21283 16.10103 -30.88745 -5.21283 11.71954 -32.7906 -5.21283 -16.10352 31.26451 -5.21283 -11.72203 33.16766 -5.21283 -7.122208 34.45647 -5.21283 -2.389732 35.10693 -5.21283 2.387238 35.10693 -5.21283 34.99875 0.1885299 -5.21283 34.67276 4.954365 -5.21283 23.88811 25.76779 -5.21283 27.14865 22.27661 -5.21283 29.90343 18.37397 -5.21283 32.10115 14.13257 -5.21283 33.70085 9.631417 -5.21283 34.67276 -4.577301 -5.21283 33.70085 -9.254357 -5.21283 32.10115 -13.75551 -5.21283 29.90343 -17.99691 -5.21283 7.119713 34.45647 -5.21283 11.71954 33.16766 -5.21283 16.10103 31.26451 -5.21283 20.18257 28.78248 -5.21283 -10.87165 33.45765 29.78717 -15.23662 31.69859 29.78717 -19.32614 29.36984 29.78717 -23.06629 26.5135 29.78717 -26.38942 23.18123 29.78717 -29.23548 19.43326 29.78717 -31.553 15.33736 29.78717 -33.30008 10.96757 29.78717 -34.44514 6.402908 29.78717 -34.96747 1.725895 29.78717 -34.85763 -2.978916 29.78717 -34.1176 -7.626461 29.78717 -32.76078 -12.13271 29.78717 -30.81168 -16.41621 29.78717 -28.30554 -20.39949 29.78717 -25.28768 -24.01056 29.78717 -21.81266 -27.18413 29.78717 -17.9433 -29.86281 29.78717 -13.74955 -31.99818 29.78717 -9.307244 -33.55163 29.78717 -4.69669 -34.49508 29.78717 -0.001247406 -34.81147 29.78717 4.694199 -34.49508 29.78717 9.304753 -33.55163 29.78717 13.74706 -31.99818 29.78717 17.9408 -29.86281 29.78717 21.81016 -27.18413 29.78717 25.28519 -24.01056 29.78717 28.30305 -20.39949 29.78717 30.80919 -16.41621 29.78717 32.75829 -12.13271 29.78717 34.11511 -7.626461 29.78717 34.85513 -2.978916 29.78717 34.96497 1.725895 29.78717 34.44264 6.402908 29.78717 33.29759 10.96757 29.78717 31.5505 15.33736 29.78717 29.23299 19.43326 29.78717 26.38693 23.18123 29.78717 23.06379 26.5135 29.78717 19.32365 29.36984 29.78717 15.23413 31.69859 29.78717 10.86915 33.45765 29.78717 34.67276 4.954365 -50.21283 33.70085 9.631417 -50.21283 32.10115 14.13257 -50.21283 29.90343 18.37397 -50.21283 27.14865 22.27661 -50.21283 23.88811 25.76779 -50.21283 20.18257 28.78248 -50.21283 16.10103 31.26451 -50.21283 11.71954 33.16766 -50.21283 7.119713 34.45647 -50.21283 2.387238 35.10693 -50.21283 -2.389732 35.10693 -50.21283 -7.122208 34.45647 -50.21283 -11.72203 33.16766 -50.21283 -16.10352 31.26451 -50.21283 -20.18506 28.78248 -50.21283 -23.89061 25.76779 -50.21283 -27.15114 22.27661 -50.21283 -29.90593 18.37397 -50.21283 -32.10364 14.13257 -50.21283 -33.70335 9.631417 -50.21283 -34.67525 4.954365 -50.21283 -35.00125 0.1885299 -50.21283 -34.67525 -4.577301 -50.21283 -33.70335 -9.254357 -50.21283 -32.10364 -13.75551 -50.21283 -29.90593 -17.99691 -50.21283 -27.15114 -21.89955 -50.21283 -23.89061 -25.39073 -50.21283 -20.18506 -28.40542 -50.21283 -16.10352 -30.88745 -50.21283 -11.72203 -32.7906 -50.21283 -7.122208 -34.07941 -50.21283 -2.389732 -34.72987 -50.21283 2.387238 -34.72987 -50.21283 7.119713 -34.07941 -50.21283 11.71954 -32.7906 -50.21283 16.10103 -30.88745 -50.21283 20.18257 -28.40542 -50.21283 23.88811 -25.39073 -50.21283 27.14865 -21.89955 -50.21283 29.90343 -17.99691 -50.21283 32.10115 -13.75551 -50.21283 33.70085 -9.254357 -50.21283 34.67276 -4.577301 -50.21283 34.99875 0.1885299 -50.21283 -0.001247406 0.1885299 -50.21283 -6.571495 41.67144 29.78717 -10.87165 40.75741 29.78717 -2.443802 29.08549 29.78717 0.2728844 29.18723 29.78717 2.98716 29.03414 29.78717 13.34782 25.93348 29.78717 15.69996 24.57033 29.78717 -21.49022 19.6622 29.78717 -19.57225 21.5889 29.78717 -17.4823 23.32752 29.78717 -15.23872 24.8628 29.78717 -12.86123 26.18124 29.78717 -10.37072 27.27126 29.78717 -7.789093 28.12327 29.78717 -5.139023 28.72979 29.78717 5.675175 28.62756 29.78717 8.313309 27.97105 29.78717 10.87837 27.07038 29.78717 6.468677 -28.08053 29.78717 3.793091 -28.56217 29.78717 1.08416 -28.79115 29.78717 -1.634312 -28.76545 29.78717 -4.338428 -28.4853 29.78717 -7.004433 -27.95317 29.78717 10.86915 40.75741 29.78717 6.569 41.67144 29.78717 2.196865 42.13097 29.78717 -2.199356 42.13097 29.78717 28.76638 -3.475269 29.78717 28.29689 -6.153015 29.78717 17.91411 22.99291 29.78717 19.97083 21.21509 29.78717 21.85203 19.25248 29.78717 23.54119 17.12234 29.78717 25.02345 14.84338 29.78717 26.28579 12.43564 29.78717 27.31712 9.920269 29.78717 28.10838 7.319374 29.78717 28.65261 4.655815 29.78717 28.94503 1.952995 29.78717 28.98306 -0.7653275 29.78717 22.37689 -18.2565 29.78717 20.55134 -20.27098 29.78717 18.54517 -22.10565 29.78717 16.37601 -23.7444 29.78717 14.06294 -25.17283 29.78717 11.62626 -26.37839 29.78717 9.087407 -27.35047 29.78717 -18.96581 -21.75105 29.78717 -20.93694 -19.87878 29.78717 27.57872 -8.775032 29.78717 26.61817 -11.31828 29.78717 25.4237 -13.76039 29.78717 24.00578 -16.07993 29.78717 -9.608891 -27.17373 29.78717 -12.12892 -26.15382 29.78717 -14.54237 -24.90242 29.78717 -16.82803 -23.43052 29.78717 -22.72408 -17.83016 29.78717 -24.31153 -15.62318 29.78717 -25.68534 -13.27725 29.78717 -28.90899 2.499901 29.78717 -28.56553 5.196709 29.78717 -27.97104 7.849506 29.78717 -27.13076 10.43497 29.78717 -26.05206 12.9304 29.78717 -24.74442 15.31385 29.78717 -23.21934 17.56438 29.78717 -26.83344 -10.81298 29.78717 -27.74574 -8.252038 29.78717 -28.41422 -5.616917 29.78717 -28.833 -2.930775 29.78717 -28.99841 -0.2172203 29.78717 -7.758606 6.499104 -0.2128295 -8.315453 5.744965 -0.2128295 5.30769 -8.285855 -0.2128295 -0.4398117 10.17891 -0.2128295 -1.373402 10.09394 -0.2128295 -2.294929 9.921929 -0.2128295 -3.1963 9.664376 -0.2128295 -4.069591 9.323548 -0.2128295 -4.907135 8.902443 -0.2128295 -5.701561 8.404759 -0.2128295 -6.445892 7.834873 -0.2128295 -7.133591 7.197788 -0.2128295 0.4976273 10.17608 -0.2128295 8.564263 -4.972092 -0.2128295 9.009877 -4.147327 -0.2128295 9.376297 -3.284462 -0.2128295 9.660309 -2.391075 -0.2128295 9.859414 -1.475018 -0.2128295 -8.799233 4.941998 -0.2128295 -9.205697 4.097252 -0.2128295 -9.53127 3.218159 -0.2128295 -6.841377 -7.106167 -0.2128295 -6.128235 -7.714634 -0.2128295 -5.361248 -8.253647 -0.2128295 -4.547157 -8.718472 -0.2128295 -3.693119 -9.105019 -0.2128295 6.794716 -7.147331 -0.2128295 7.451797 -6.478714 -0.2128295 8.043381 -5.751503 -0.2128295 9.971863 -0.5443421 -0.2128295 9.996666 0.3927765 -0.2128295 9.933609 1.328098 -0.2128295 9.783246 2.253407 -0.2128295 9.546895 3.160568 -0.2128295 9.226635 4.041611 -0.2128295 6.077915 -7.75148 -0.2128295 -9.773095 2.312443 -0.2128295 -9.929043 1.388058 -0.2128295 -9.997746 0.4531326 -0.2128295 -9.9786 -0.4841156 -0.2128295 -9.871769 -1.415455 -0.2128295 -9.6782 -2.332695 -0.2128295 -9.399586 -3.227783 -0.2128295 -9.038384 -4.092846 -0.2128295 -8.59776 -4.920284 -0.2128295 -8.081589 -5.702827 -0.2128295 -7.494408 -6.433594 -0.2128295 2.74614 -9.426659 -0.2128295 3.634449 -9.12714 -0.2128295 4.490807 -8.745755 -0.2128295 7.794071 6.452156 -0.2128295 7.173283 7.154598 -0.2128295 6.489445 7.795822 -0.2128295 4.957161 8.872666 -0.2128295 4.122177 9.298821 -0.2128295 8.346356 5.694668 -0.2128295 3.250957 9.644913 -0.2128295 2.351158 9.907902 -0.2128295 0.9051094 -9.77031 -0.2128295 -1.895496 -9.630421 -0.2128295 -0.0314331 -9.811425 -0.2128295 -0.9677124 -9.764657 -0.2128295 -2.806633 -9.409897 -0.2128295 1.833687 -9.641678 -0.2128295 5.748569 8.370194 -0.2128295 8.82528 4.888794 -0.2128295 1.430683 10.08548 -0.2128295 -17.25876 8.813145 14.78717 -16.37531 10.39127 14.78717 -15.34796 11.87973 14.78717 -14.18575 13.26545 14.78717 -12.89888 14.53624 14.78717 -11.49866 15.68095 14.78717 -9.99741 16.68951 14.78717 -8.40831 17.55306 14.78717 -6.745327 18.26402 14.78717 -5.023079 18.81612 14.78717 -3.256699 19.20451 14.78717 -1.461708 19.4258 14.78717 0.3461151 19.47804 14.78717 2.150887 19.36075 14.78717 3.936745 19.07497 14.78717 5.688 18.62323 14.78717 7.389252 18.00948 14.78717 9.025559 17.23911 14.78717 10.58254 16.31892 14.78717 12.0465 15.25695 14.78717 13.40459 14.06257 14.78717 14.64488 12.74627 14.78717 15.75644 11.3196 14.78717 16.72953 9.795121 14.78717 17.5556 8.186215 14.78717 18.22737 6.507023 14.78717 18.73894 4.772305 14.78717 19.08583 2.997303 14.78717 19.26498 1.19762 14.78717 19.27482 -0.6109314 14.78717 19.11525 -2.41246 14.78717 18.78769 -4.191128 14.78717 18.29502 -5.931309 14.78717 17.64155 -7.617706 14.78717 16.83304 -9.235505 14.78717 15.87659 -10.77048 14.78717 14.78061 -12.20915 14.78717 13.55471 -13.53887 14.78717 12.2097 -14.74795 14.78717 10.75737 -15.82577 14.78717 9.210492 -16.76286 14.78717 7.582661 -17.55097 14.78717 5.888184 -18.1832 14.78717 4.141949 -18.65396 14.78717 2.359302 -18.95915 14.78717 0.5559158 -19.09605 14.78717 -1.252369 -19.06349 14.78717 -3.04966 -18.86174 14.78717 -4.820164 -18.49258 14.78717 -6.548313 -17.95924 14.78717 -8.21893 -17.26642 14.78717 -9.81733 -16.42021 14.78717 -11.32946 -15.42804 14.78717 -12.74205 -14.29863 14.78717 -14.04266 -13.0419 14.78717 -15.21988 -11.66891 14.78717 -16.26336 -10.19171 14.78717 -17.16393 -8.623291 14.78717 -17.91366 -6.977432 14.78717 -18.50599 -5.2686 14.78717 -18.93569 -3.51181 14.78717 -19.199 -1.7225 14.78717 -19.2936 0.0836029 14.78717 -19.21865 1.890629 14.78717 -18.97482 3.682693 14.78717 -18.56425 5.444054 14.78717 -17.99055 7.159229 14.78717</float_array>
          <technique_common>
            <accessor source="#notch_ring-mesh-positions-array" count="504" stride="3">
              <param name="X" type="float"/>
              <param name="Y" type="float"/>
              <param name="Z" type="float"/>
            </accessor>
          </technique_common>
        </source>
        <source id="notch_ring-mesh-normals">
          <float_array id="notch_ring-mesh-normals-array" count="3012">0.9995922 0.02855533 0 0.9995922 -0.02855539 0 0.9995922 -0.02855539 0 0.9934818 -0.1139916 0 0.9934818 -0.1139916 0 0.9740118 -0.226497 0 0.9740118 -0.226497 0 0.9418444 -0.3360492 0 0.9418444 -0.3360492 0 0.8973987 -0.4412207 0 0.8973987 -0.4412207 0 0.8412533 -0.5406411 0 0.8412533 -0.5406411 0 0.7741419 -0.6330122 0 0.7741419 -0.6330122 0 0.6969368 -0.7171326 0 0.6969368 -0.7171326 0 0.6106482 -0.791902 0 0.6106482 -0.791902 0 0.5163975 -0.8563491 0 0.5163975 -0.8563491 0 0.4154152 -0.9096319 0 0.4154152 -0.9096319 0 0.3090169 -0.9510566 0 0.3090169 -0.9510566 0 0.1985908 -0.9800825 0 0.1985908 -0.9800825 0 0.0855742 -0.9963318 0 0.0855742 -0.9963318 0 -0.02855569 -0.9995923 0 -0.02855569 -0.9995923 0 -0.1423147 -0.9898215 0 -0.1423147 -0.9898215 0 -0.2542189 -0.9671467 0 -0.2542189 -0.9671467 0 -0.3628073 -0.9318642 0 -0.3628073 -0.9318642 0 -0.4666671 -0.8844331 0 -0.4666671 -0.8844331 0 -0.5644432 -0.8254719 0 -0.5644432 -0.8254719 0 -0.6548606 -0.7557497 0 -0.6548606 -0.7557497 0 -0.7367412 -0.6761748 0 -0.7367412 -0.6761748 0 -0.8090172 -0.5877851 0 -0.8090172 -0.5877851 0 -0.8707459 -0.4917333 0 -0.8707459 -0.4917333 0 -0.9211239 -0.3892696 0 -0.9211239 -0.3892696 0 -0.9594928 -0.2817329 0 -0.9594928 -0.2817329 0 -0.985354 -0.1705217 0 -0.985354 -0.1705217 0 -0.998369 -0.05708932 0 -0.998369 -0.05708932 0 -0.998369 0.05708932 0 -0.998369 0.05708932 0 -0.985354 0.1705216 0 -0.985354 0.1705216 0 -0.9594928 0.281733 0 -0.9594928 0.281733 0 -0.921124 0.3892694 0 -0.921124 0.3892694 0 -0.8707459 0.4917333 0 -0.8707459 0.4917333 0 -0.8090168 0.5877856 0 -0.8090168 0.5877856 0 -0.7367413 0.6761747 0 -0.7367413 0.6761747 0 -0.654861 0.7557494 0 -0.654861 0.7557494 0 -0.5644429 0.8254722 0 -0.5644429 0.8254722 0 -0.4666671 0.8844331 0 -0.4666671 0.8844331 0 -0.3628079 0.931864 0 -0.3628079 0.931864 0 -0.2542183 0.9671469 0 -0.2542183 0.9671469 0 -0.1423154 0.9898214 0 -0.1423154 0.9898214 0 -0.02855497 0.9995923 0 -0.02855497 0.9995923 0 0.0855742 0.9963318 0 0.0855742 0.9963318 0 0.1985901 0.9800826 0 0.1985901 0.9800826 0 0.3090175 0.9510564 0 0.3090175 0.9510564 0 0.4154147 0.9096322 0 0.4154147 0.9096322 0 0.5163975 0.8563491 0 0.5163975 0.8563491 0 0.6106486 0.7919016 0 0.6106486 0.7919016 0 0.6969368 0.7171326 0 0.6969368 0.7171326 0 0.774142 0.6330121 0 0.774142 0.6330121 0 0.8412532 0.5406414 0 0.8412532 0.5406414 0 0.8973987 0.4412208 0 0.8973987 0.4412208 0 0.9418444 0.3360492 0 0.9418444 0.3360492 0 0.9740118 0.226497 0 0.9740118 0.226497 0 0.9934818 0.1139916 0 0.9934818 0.1139916 0 0.9995922 0.02855533 0 0 0 1 0 0 1 0 0 1 0 0 1 0 0 1 0 0 1 0 0 1 0 0 1 0 0 1 0 0 1 0 0 1 0 0 1 0 0 1 0 0 1 0 0 1 0 0 1 0 0 1 0 0 1 0 0 1 0 0 1 0 0 1 0 0 1 0 0 1 0 0 1 0 0 1 0 0 1 0 0 1 0 0 1 0 0 1 0 0 1 0 0 1 0 0 1 0 0 1 0 0 1 0 0 1 0 0 1 0 0 1 0 0 1 0 0 1 0 0 1 0 0 1 0 0 1 0 0 1 0 0 1 0 0 1 0 0 1 0 0 1 0 0 1 0 0 1 0 0 1 0 0 1 0 0 1 0 0 1 0 0 1 0 0 1 0 0 1 0 0 1 0 0 1 0 0 1 0 0 1 0 0 1 0 0 1 0 0 1 0 0 1 0 0 1 0 0 1 0 0 1 0 0 1 0 0 1 0 0 1 0 0 1 0 0 1 0 0 1 0 0 1 0 0 1 0 0 1 0 0 1 0 0 1 0 0 1 0 0 1 0 0 1 0 0 1 0 0 1 0 0 1 0 0 1 0 0 1 0 0 1 0 0 1 0 0 1 0 0 1 0 0 1 0 0 1 0 0 1 0 0 1 0 0 1 0 0 1 0 0 1 0 0 1 0 0 1 0 0 1 0 0 1 0 0 1 0 0 1 0 0 1 0 0 1 0 0 -1 0 0 -1 0 0 -1 0 0 -1 0 0 -1 0 0 -1 0 0 -1 0 0 -1 0 0 -1 0 0 -1 0 0 -1 0 0 -1 0 0 -1 0 0 -1 0 0 -1 0 0 -1 0 0 -1 0 0 -1 0 0 -1 0 0 -1 0 0 -1 0 0 -1 0 0 -1 0 0 -1 0 0 -1 0 0 -1 0 0 -1 0 0 -1 0 0 -1 0 0 -1 0 0 -1 0 0 -1 0 0 -1 0 0 -1 0 0 -1 0 0 -1 0 0 -1 0 0 -1 0 0 -1 0 0 -1 0 0 -1 0 0 -1 0 0 -1 0 0 -1 0 0 -1 0 0 -1 0 0 -1 0 0 -1 0 0 -1 0 0 -1 0 0 -1 0 0 -1 0 0 -1 0 0 -1 0 0 -1 0 0 -1 0 0 -1 0 0 -1 0 0 -1 0 0 -1 0 0 -1 0 0 -1 0 0 -1 0 0 -1 0 0 -1 0 0 -1 0 0 -1 0 0 -1 0 0 -1 0 0 -1 0 0 -1 0 0 -1 0 0 -1 0 0 -1 0 0 -1 0 0 -1 0 0 -1 0 0 -1 0 0 -1 0 0 -1 0 0 -1 0 0 -1 0 0 -1 0 0 -1 0 0 -1 0 0 -1 0 0 -1 0 0 -1 0 0 -1 0 0 -1 0 0 -1 0 0 -1 0 0 -1 0 0 -1 0 0 -1 0 0 -1 0 0 -1 0 0 -1 0 0 -1 0 0 -1 0 0 -1 0 0 -1 0.3737846 -0.9275155 0 0.3737846 -0.9275155 0 0.4948375 -0.8689855 0 0.4948375 -0.8689855 0 0.6069444 -0.7947443 0 0.6069444 -0.7947443 0 0.7080761 -0.7061361 0 0.7080761 -0.7061361 0 0.7964078 -0.60476 0 0.7964078 -0.60476 0 0.8703404 -0.4924507 0 0.8703404 -0.4924507 0 0.9285378 -0.3712378 0 0.9285378 -0.3712378 0 0.9699476 -0.2433139 0 0.9699476 -0.2433139 0 0.9938215 -0.1109905 0 0.9938215 -0.1109905 0 0.9997276 0.02333998 0 0.9997276 0.02333998 0 0.9875591 0.1572481 0 0.9875591 0.1572481 0 0.9575365 0.2883122 0 0.9575365 0.2883122 0 0.9102017 0.4141654 0 0.9102017 0.4141654 0 0.846411 0.5325302 0 0.846411 0.5325302 0 0.767318 0.6412668 0 0.767318 0.6412668 0 0.6743522 0.73841 0 0.6743522 0.73841 0 0.5691942 0.8222032 0 0.5691942 0.8222032 0 0.4537457 0.8911313 0 0.4537457 0.8911313 0 0.3300941 0.943948 0 0.3300941 0.943948 0 0.2004743 0.9796989 0 0.2004743 0.9796989 0 0.0672301 0.9977375 0 0.0672301 0.9977375 0 -0.06723004 0.9977375 0 -0.06723004 0.9977375 0 -0.2004743 0.9796989 0 -0.2004743 0.9796989 0 -0.3300941 0.943948 0 -0.3300941 0.943948 0 -0.453746 0.8911311 0 -0.453746 0.8911311 0 -0.5691944 0.822203 0 -0.5691944 0.822203 0 -0.6743517 0.7384103 0 -0.6743517 0.7384103 0 -0.767318 0.6412668 0 -0.767318 0.6412668 0 -0.8464112 0.5325299 0 -0.8464112 0.5325299 0 -0.9102014 0.414166 0 -0.9102014 0.414166 0 -0.9575366 0.2883114 0 -0.9575366 0.2883114 0 -0.9875593 0.1572474 0 -0.9875593 0.1572474 0 -0.9997276 0.02333998 0 -0.9997276 0.02333998 0 -0.9938215 -0.1109905 0 -0.9938215 -0.1109905 0 -0.9699479 -0.2433124 0 -0.9699479 -0.2433124 0 -0.9285374 -0.3712389 0 -0.9285374 -0.3712389 0 -0.8703408 -0.4924498 0 -0.8703408 -0.4924498 0 -0.7964075 -0.6047605 0 -0.7964075 -0.6047605 0 -0.7080764 -0.7061358 0 -0.7080764 -0.7061358 0 -0.6069444 -0.7947443 0 -0.6069444 -0.7947443 0 -0.4948377 -0.8689854 0 -0.4948377 -0.8689854 0 -0.3737843 -0.9275157 0 -0.3737843 -0.9275157 0 0.9976688 0.06824171 0 0.9790838 0.2034572 0 0.9790838 0.2034572 0 0.942261 0.3348793 0 0.942261 0.3348793 0 0.8878853 0.4600648 0 0.8878853 0.4600648 0 0.8169701 0.5766801 0 0.8169701 0.5766801 0 0.7308359 0.6825532 0 0.7308359 0.6825532 0 0.6310883 0.7757109 0 0.6310883 0.7757109 0 0.5195834 0.8544198 0 0.5195834 0.8544198 0 0.3984013 0.9172112 0 0.3984013 0.9172112 0 0.2697967 0.9629173 0 0.2697967 0.9629173 0 0.1361657 0.9906861 0 0.1361657 0.9906861 0 0 1 0 0 1 0 -0.1361657 0.9906861 0 -0.1361657 0.9906861 0 -0.2697967 0.9629173 0 -0.2697967 0.9629173 0 -0.3984017 0.9172111 0 -0.3984017 0.9172111 0 -0.5195835 0.8544197 0 -0.5195835 0.8544197 0 -0.6310877 0.7757114 0 -0.6310877 0.7757114 0 -0.7308359 0.6825532 0 -0.7308359 0.6825532 0 -0.8169701 0.5766801 0 -0.8169701 0.5766801 0 -0.8878853 0.4600648 0 -0.8878853 0.4600648 0 -0.9422608 0.3348801 0 -0.9422608 0.3348801 0 -0.9790842 0.2034557 0 -0.9790842 0.2034557 0 -0.9976688 0.06824249 0 -0.9976688 0.06824249 0 -0.9976688 -0.06824254 0 -0.9976688 -0.06824254 0 -0.9790842 -0.2034555 0 -0.9790842 -0.2034555 0 -0.9422608 -0.3348801 0 -0.9422608 -0.3348801 0 -0.8878853 -0.460065 0 -0.8878853 -0.460065 0 -0.8169699 -0.5766803 0 -0.8169699 -0.5766803 0 -0.7308359 -0.6825532 0 -0.7308359 -0.6825532 0 -0.6310877 -0.7757114 0 -0.6310877 -0.7757114 0 -0.5195841 -0.8544193 0 -0.5195841 -0.8544193 0 -0.398401 -0.9172113 0 -0.398401 -0.9172113 0 -0.2697975 -0.9629171 0 -0.2697975 -0.9629171 0 -0.1361657 -0.9906861 0 -0.1361657 -0.9906861 0 0 -1 0 0 -1 0 0.1361657 -0.9906861 0 0.1361657 -0.9906861 0 0.2697975 -0.9629171 0 0.2697975 -0.9629171 0 0.3984007 -0.9172115 0 0.3984007 -0.9172115 0 0.519584 -0.8544194 0 0.519584 -0.8544194 0 0.6310883 -0.7757109 0 0.6310883 -0.7757109 0 0.7308359 -0.6825532 0 0.7308359 -0.6825532 0 0.8169699 -0.5766803 0 0.8169699 -0.5766803 0 0.8878853 -0.460065 0 0.8878853 -0.460065 0 0.942261 -0.3348793 0 0.942261 -0.3348793 0 0.9790839 -0.2034571 0 0.9790839 -0.2034571 0 0.9976689 -0.06824177 0 0.9976689 -0.06824177 0 0.9976688 0.06824171 0 0 0 -1 0 0 -1 0 0 -1 0 0 -1 0 0 -1 0 0 -1 0 0 -1 0 0 -1 0 0 -1 0 0 -1 0 0 -1 0 0 -1 0 0 -1 0 0 -1 0 0 -1 0 0 -1 0 0 -1 0 0 -1 0 0 -1 0 0 -1 0 0 -1 0 0 -1 0 0 -1 0 0 -1 0 0 -1 0 0 -1 0 0 -1 0 0 -1 0 0 -1 0 0 -1 0 0 -1 0 0 -1 0 0 -1 0 0 -1 0 0 -1 0 0 -1 0 0 -1 0 0 -1 0 0 -1 0 0 -1 0 0 -1 0 0 -1 0 0 -1 0 0 -1 0 0 -1 0 0 -1 0 0 1 0 0 1 0 0 1 0 0 1 0 0 1 0 0 1 0 0 1 0 0 1 0 0 1 0 0 1 0 0 1 0 0 1 0 0 1 0 0 1 0 0 1 0 0 1 0 0 1 0 0 1 0 0 1 0 0 1 0 0 1 0 0 1 0 0 1 0 0 1 0 0 1 0 0 1 0 0 1 0 0 1 0 0 1 0 0 1 0 0 1 0 0 1 0 0 1 0 0 1 0 0 1 0 0 1 0 0 1 0 0 1 0 0 1 0 0 1 0 0 1 0 0 1 0 0 1 0 0 1 0 0 1 0 0 1 0 0 1 0 0 1 0 0 1 0 0 1 0 0 1 0 0 1 0 0 1 0 0 1 0 0 1 0 0 1 0 0 1 0 0 1 0 0 1 0 0 1 0 0 1 0 0 1 0 0 1 0 0 1 0 0 1 0 0 1 0 0 1 0 0 1 0 0 1 0 0 1 0 0 1 0 0 1 0 0 1 0 0 1 0 0 1 0 0 1 0 0 1 0 0 1 0 0 1 0 0 1 0 0 1 0 0 1 0 0 1 0 0 1 0 0 1 0 0 1 0 0 1 0 0 1 0 0 1 0 0 1 0 0 1 0 0 1 0 0 1 0 0 1 0 0 1 0 0 1 0 0 1 0 0 1 0 0 1 0 0 1 0 0 1 0 0 1 0 0 1 0 0 1 0 0 1 0 0 1 0 0 1 0 0 1 0 0 1 0 0 1 0 0 1 0 0 1 0 0 1 0 0 1 0 0 1 0 0 1 0 0 1 0 0 1 0 0 1 0 0 1 0 0 1 0 0 1 0 0 1 0 0 1 0 0 1 0 0 1 0 0 1 0 0 1 0 0 1 0 0 1 0 0 1 0 0 1 0 0 1 0 0 1 0 0 1 0 0 1 0 0 1 0 0 1 0 0 1 0 0 1 0 0 1 0 0 1 0 0 1 0 0 1 0 0 1 0 0 1 0 0 1 0 0 1 0 0 1 0 0 1 0 0 1 0 0 1 0 0 1 0 0 1 0 0 1 0 0 1 0 0 1 0 0 1 0 0 1 0 0 1 0 0 1 0 0 1 0 0 1 0 0 1 0 0 1 0 0 1 0 0 1 0 0 1 0 0 1 0 0 1 0 0 1 0 0 1 0 0 1 0 0 1 0 0 1 0 0 1 0 0 1 0 0 1 0 0 1 0 0 1 0 0 1 0.6921068 -0.4690095 0.5486514 0.7377052 -0.4129762 0.5340802 0.6451471 -0.5317583 0.5486513 0.6957921 -0.4802413 0.5340802 0.5925181 -0.589834 0.5486513 0.6477645 -0.543286 0.5340802 0.5346816 -0.6427264 0.5486513 0.5940428 -0.6015573 0.5340807 0.4721454 -0.6899712 0.5486516 0.5351041 -0.6545396 0.5340801 0.4054607 -0.7311521 0.5486513 0.4714597 -0.7017722 0.5340801 0.3352145 -0.7659068 0.5486512 0.4036723 -0.742837 0.5340803 0.2620204 -0.7939314 0.5486514 0.3323398 -0.777373 0.5340801 0.1865242 -0.8149788 0.5486513 0.2580839 -0.8050782 0.5340803 0.1093878 -0.8288642 0.5486515 0.1815593 -0.8257082 0.5340808 0.03128993 -0.8354653 0.5486517 0.1034439 -0.8390815 0.5340801 -0.04708039 -0.8347246 0.5486513 0.02441567 -0.8450812 0.5340802 -0.1250377 -0.8266483 0.5486512 -0.05482649 -0.843654 0.5340803 -0.2018964 -0.8113073 0.5486513 -0.1335873 -0.8348128 0.5340806 -0.2769827 -0.788836 0.5486515 -0.2111709 -0.8186364 0.53408 -0.3496326 -0.7594332 0.5486512 -0.2869042 -0.7952635 0.5340806 -0.4192109 -0.7233559 0.5486514 -0.3601118 -0.7649037 0.5340803 -0.4851055 -0.6809216 0.5486514 -0.4301536 -0.7278234 0.5340796 -0.5467361 -0.6325042 0.5486512 -0.4964229 -0.6843406 0.5340808 -0.6035624 -0.5785276 0.5486514 -0.558322 -0.6348503 0.5340803 -0.6550843 -0.5194672 0.5486515 -0.6153167 -0.5797792 0.5340802 -0.7008495 -0.4558417 0.5486513 -0.6669055 -0.5196104 0.5340807 -0.7404564 -0.3882082 0.5486516 -0.7126314 -0.454879 0.5340802 -0.7735548 -0.3171668 0.5486513 -0.752095 -0.3861503 0.5340797 -0.7998557 -0.2433369 0.5486512 -0.7849507 -0.3140231 0.5340803 -0.8191276 -0.1673671 0.5486513 -0.8109073 -0.239139 0.5340805 -0.8312008 -0.08992803 0.5486514 -0.8297374 -0.1621542 0.5340805 -0.8359693 -0.01169604 0.5486516 -0.8412761 -0.08374667 0.5340798 -0.8333918 0.06663423 0.5486511 -0.8454212 -0.004597067 0.5340805 -0.8234897 0.1443825 0.5486514 -0.8421372 0.07458794 0.5340801 -0.8063516 0.2208596 0.5486512 -0.8314518 0.1531206 0.5340806 -0.7821252 0.2954004 0.5486516 -0.8134607 0.230305 0.53408 -0.751029 0.3673383 0.5486512 -0.7883196 0.3054674 0.5340804 -0.7133298 0.4360529 0.5486515 -0.7562516 0.3779439 0.5340803 -0.6693623 0.5009348 0.5486515 -0.7175369 0.4471006 0.5340805 -0.6195129 0.5614137 0.5486514 -0.6725175 0.5123265 0.5340802 -0.5642198 0.6169584 0.5486513 -0.6215868 0.5730515 0.5340805 -0.5039666 0.6670826 0.5486515 -0.5651947 0.6287395 0.5340802 -0.4392871 0.7113428 0.5486513 -0.5038358 0.678902 0.5340801 -0.3707448 0.7493531 0.5486513 -0.4380477 0.7230994 0.5340803 -0.2989453 0.7807775 0.5486513 -0.3684093 0.7609419 0.5340806 -0.2245182 0.8053404 0.5486515 -0.2955374 0.792096 0.53408 -0.1481191 0.8228259 0.5486513 -0.2200639 0.8162904 0.5340804 -0.07041734 0.8330805 0.5486514 -0.1426592 0.8333106 0.5340803 0.007903456 0.8360139 0.5486515 -0.06399947 0.8430079 0.5340803 0.08615404 0.8316003 0.5486514 0.01522147 0.8452968 0.5340801 0.1636473 0.8198788 0.5486513 0.09430944 0.8401573 0.5340802 0.2397027 0.8009521 0.5486513 0.1725689 0.8276341 0.5340802 0.3136524 0.7749864 0.5486514 0.2493125 0.8078375 0.5340805 0.3848453 0.74221 0.5486514 0.323863 0.7809424 0.5340801 0.4526553 0.7029117 0.5486514 0.395569 0.7471837 0.5340803 0.5164882 0.6574357 0.5486513 0.4637984 0.7068588 0.5340804 0.5757821 0.6061821 0.5486513 0.5279513 0.6603225 0.5340802 0.6300158 0.5496015 0.5486514 0.5874651 0.6079827 0.5340803 0.6787133 0.4881904 0.5486514 0.6418163 0.5503002 0.5340802 0.7214456 0.4224903 0.5486513 0.6905276 0.4877805 0.5340805 0.7578386 0.3530756 0.5486515 0.7331691 0.420977 0.53408 0.7875709 0.2805598 0.5486512 0.7693691 0.3504701 0.5340804 0.8103821 0.2055786 0.5486513 0.7988066 0.276887 0.5340802 0.8260722 0.1287883 0.5486515 0.8212249 0.2008678 0.5340803 0.8345023 0.05086851 0.5486513 0.836426 0.123085 0.5340803 0.835599 -0.02749896 0.5486513 0.8442766 0.04422003 0.5340803 0.8293522 -0.1056249 0.5486513 0.8447076 -0.03503376 0.5340803 0.8158171 -0.1828229 0.5486514 0.8377154 -0.1139793 0.5340803 0.7951124 -0.2584145 0.5486514 0.823361 -0.191924 0.5340803 0.767421 -0.331733 0.5486512 0.8017717 -0.2681803 0.5340802 0.7329842 -0.402139 0.5486515 0.7731353 -0.3420819 0.5340803 0.7325579 -0.4100947 0.5433058 0.8414701 -0.2246715 0.4913763 0.6909372 -0.4768904 0.543306 0.8167353 -0.3024787 0.4913757 0.6432446 -0.5394954 0.5433057 0.7848218 -0.3776302 0.4913759 0.5898981 -0.59736 0.5433059 0.7460104 -0.449464 0.4913762 0.5313704 -0.6499727 0.5433055 0.7006439 -0.5173466 0.4913763 0.4681701 -0.6968755 0.5433059 0.6491236 -0.5806799 0.4913751 0.400856 -0.737654 0.5433058 0.5918924 -0.6389155 0.4913761 0.3300209 -0.7719489 0.5433056 0.5294619 -0.6915341 0.4913763 0.256283 -0.7994609 0.543306 0.4623816 -0.738074 0.4913757 0.1802925 -0.8199471 0.5433061 0.3912323 -0.7781301 0.4913765 0.1027219 -0.833227 0.5433057 0.3166519 -0.8113457 0.4913754 0.02424532 -0.8391848 0.5433058 0.2392836 -0.8374326 0.4913757 -0.05444377 -0.8377677 0.5433058 0.1598142 -0.8561598 0.4913755 -0.1326555 -0.8289881 0.5433058 0.07893753 -0.8673629 0.4913761 -0.2096977 -0.8129244 0.5433053 -0.002629697 -0.8709435 0.4913761 -0.2849024 -0.7897147 0.5433059 -0.08417254 -0.8668709 0.4913753 -0.3575993 -0.7595669 0.5433057 -0.164981 -0.8551786 0.4913763 -0.4271522 -0.7227449 0.5433055 -0.2443341 -0.8359728 0.4913761 -0.4929592 -0.6795657 0.5433062 -0.3215423 -0.8094199 0.4913756 -0.5544262 -0.6304211 0.5433056 -0.3959252 -0.7757532 0.4913759 -0.6110233 -0.5757339 0.5433057 -0.4668285 -0.7352691 0.4913761 -0.6622526 -0.5159848 0.543306 -0.5336297 -0.6883231 0.4913763 -0.707659 -0.4517053 0.5433056 -0.5957392 -0.6353304 0.4913758 -0.7468473 -0.3834555 0.5433056 -0.6526145 -0.576753 0.4913759 -0.7794736 -0.3118324 0.5433059 -0.7037549 -0.5131072 0.4913757 -0.8052493 -0.2374707 0.5433059 -0.7487106 -0.4449522 0.4913755 -0.8239481 -0.161023 0.5433057 -0.7870873 -0.3728851 0.4913759 -0.835406 -0.08316236 0.5433054 -0.8185464 -0.2975417 0.4913764 -0.8395224 -0.004564762 0.5433061 -0.8428118 -0.2195853 0.491376 -0.8362613 0.07406705 0.5433057 -0.8596708 -0.1396977 0.4913762 -0.8256506 0.1520522 0.543306 -0.868975 -0.05858397 0.4913759 -0.8077847 0.228698 0.5433056 -0.870643 0.02304369 0.4913755 -0.7828192 0.3033363 0.5433058 -0.8646589 0.1044731 0.4913761 -0.7509751 0.3753072 0.5433057 -0.851077 0.1849808 0.4913758 -0.7125303 0.4439811 0.5433058 -0.8300148 0.2638655 0.4913762 -0.6678253 0.5087519 0.5433055 -0.8016593 0.3404292 0.4913759 -0.61725 0.5690531 0.5433058 -0.7662575 0.4140031 0.4913763 -0.5612509 0.6243528 0.5433059 -0.7241258 0.4839342 0.4913751 -0.5003201 0.6741652 0.5433057 -0.6756252 0.5496184 0.4913761 -0.4349911 0.718054 0.5433059 -0.6211881 0.6104707 0.4913765 -0.3658387 0.7556326 0.5433061 -0.561295 0.6659562 0.4913759 -0.2934755 0.7865692 0.5433056 -0.4964687 0.71559 0.4913756 -0.2185286 0.8105948 0.5433059 -0.4272763 0.7589365 0.4913762 -0.1416636 0.8274964 0.5433058 -0.3543323 0.7956121 0.4913757 -0.06355267 0.837126 0.5433058 -0.278272 0.8252965 0.491376 0.01511526 0.8393989 0.5433056 -0.1997668 0.8477279 0.4913762 0.09365135 0.834295 0.5433058 -0.1195072 0.8627094 0.4913761 0.1713646 0.8218594 0.5433058 -0.03819835 0.8701097 0.4913755 0.2475728 0.802201 0.5433059 0.04345059 0.8698628 0.4913763 0.3216035 0.7754935 0.5433058 0.1247135 0.8619723 0.4913759 0.3928089 0.7419703 0.5433058 0.2048813 0.8465067 0.4913758 0.4605623 0.7019268 0.5433058 0.2832509 0.8236008 0.4913762 0.5242675 0.6557153 0.5433057 0.3591281 0.7934588 0.4913759 0.5833662 0.6037404 0.5433059 0.4318518 0.7563422 0.4913762 0.6373381 0.5464602 0.5433059 0.500778 0.7125807 0.4913758 0.6857097 0.4843767 0.5433061 0.5653053 0.6625555 0.4913759 0.7280533 0.4180398 0.5433056 0.6248642 0.6067077 0.4913761 0.7640008 0.3480251 0.5433059 0.6789306 0.5455304 0.4913754 0.793233 0.2749553 0.5433056 0.7270325 0.4795553 0.4913761 0.8154949 0.1994662 0.5433058 0.7687439 0.4093685 0.4913758 0.83059 0.1222262 0.5433056 0.8037006 0.3355808 0.4913765 0.8383857 0.04391121 0.5433058 0.8315929 0.2588499 0.4913757 0.8388138 -0.03478962 0.5433058 0.852178 0.1798388 0.4913762 0.8318703 -0.1131842 0.5433058 0.865274 0.09925246 0.4913754 0.8176161 -0.190585 0.5433058 0.8707658 0.01778787 0.4913761 0.7961772 -0.2663093 0.5433058 0.8686055 -0.06382918 0.4913759 0.7677409 -0.339695 0.5433058 0.8588118 -0.1448861 0.4913759 1 0 0 1 0 0 -0.2079114 -0.9781476 0 -0.2079114 -0.9781476 0 -0.1045293 -0.9945218 0 -0.1045293 -0.9945218 0 0 -1 0 0 -1 0 0.1045292 -0.9945218 0 0.1045292 -0.9945218 0 0.2079114 -0.9781476 0 0.2079114 -0.9781476 0 -1 0 0 -1 0 0</float_array>
          <technique_common>
            <accessor source="#notch_ring-mesh-normals-array" count="1004" stride="3">
              <param name="X" type="float"/>
              <param name="Y" type="float"/>
              <param name="Z" type="float"/>
            </accessor>
          </technique_common>
        </source>
        <vertices id="notch_ring-mesh-vertices">
          <input semantic="POSITION" source="#notch_ring-mesh-positions"/>
        </vertices>
        <triangles count="1004">
          <input semantic="VERTEX" source="#notch_ring-mesh-vertices" offset="0"/>
          <input semantic="NORMAL" source="#notch_ring-mesh-normals" offset="1"/>
          <p>0 0 1 0 2 0 2 1 1 1 3 1 1 2 4 2 3 2 3 3 4 3 5 3 3 4 5 4 6 4 6 5 5 5 7 5 6 6 7 6 8 6 8 7 7 7 9 7 8 8 9 8 10 8 10 9 9 9 11 9 10 10 11 10 12 10 12 11 11 11 13 11 12 12 13 12 14 12 14 13 13 13 15 13 14 14 15 14 16 14 16 15 15 15 17 15 16 16 17 16 18 16 18 17 17 17 19 17 18 18 19 18 20 18 20 19 19 19 21 19 20 20 21 20 22 20 22 21 21 21 23 21 22 22 23 22 24 22 24 23 23 23 25 23 24 24 25 24 26 24 26 25 25 25 27 25 26 26 27 26 28 26 28 27 27 27 29 27 28 28 29 28 30 28 30 29 29 29 31 29 30 30 31 30 32 30 32 31 31 31 33 31 32 32 33 32 34 32 34 33 33 33 35 33 34 34 35 34 36 34 36 35 35 35 37 35 36 36 37 36 38 36 38 37 37 37 39 37 38 38 39 38 40 38 40 39 39 39 41 39 40 40 41 40 42 40 42 41 41 41 43 41 42 42 43 42 44 42 44 43 43 43 45 43 44 44 45 44 46 44 46 45 45 45 47 45 46 46 47 46 48 46 48 47 47 47 49 47 48 48 49 48 50 48 50 49 49 49 51 49 50 50 51 50 52 50 52 51 51 51 53 51 52 52 53 52 54 52 54 53 53 53 55 53 54 54 55 54 56 54 56 55 55 55 57 55 56 56 57 56 58 56 58 57 57 57 59 57 58 58 59 58 60 58 60 59 59 59 61 59 60 60 61 60 62 60 62 61 61 61 63 61 62 62 63 62 64 62 64 63 63 63 65 63 64 64 65 64 66 64 66 65 65 65 67 65 66 66 67 66 68 66 68 67 67 67 69 67 68 68 69 68 70 68 70 69 69 69 71 69 70 70 71 70 72 70 72 71 71 71 73 71 72 72 73 72 74 72 74 73 73 73 75 73 74 74 75 74 76 74 76 75 75 75 77 75 76 76 77 76 78 76 78 77 77 77 79 77 78 78 79 78 80 78 80 79 79 79 81 79 80 80 81 80 82 80 82 81 81 81 83 81 82 82 83 82 84 82 84 83 83 83 85 83 84 84 85 84 86 84 86 85 85 85 87 85 86 86 87 86 88 86 88 87 87 87 89 87 88 88 89 88 90 88 90 89 89 89 91 89 90 90 91 90 92 90 92 91 91 91 93 91 92 92 93 92 94 92 94 93 93 93 95 93 94 94 95 94 96 94 96 95 95 95 97 95 96 96 97 96 98 96 98 97 97 97 99 97 98 98 99 98 100 98 100 99 99 99 101 99 100 100 101 100 102 100 102 101 101 101 103 101 102 102 103 102 104 102 104 103 103 103 105 103 104 104 105 104 106 104 106 105 105 105 107 105 106 106 107 106 108 106 108 107 107 107 109 107 108 108 109 108 110 108 110 109 109 109 0 109 110 110 0 110 111 110 111 111 0 111 2 111 77 112 112 112 79 112 79 113 112 113 113 113 114 114 115 114 116 114 117 115 73 115 118 115 118 116 73 116 71 116 118 117 71 117 119 117 119 118 71 118 69 118 119 119 69 119 120 119 120 120 69 120 67 120 120 121 67 121 121 121 121 122 67 122 65 122 121 123 65 123 122 123 122 124 65 124 63 124 122 125 63 125 123 125 124 126 112 126 125 126 125 127 112 127 77 127 125 128 77 128 117 128 117 129 77 129 75 129 117 130 75 130 73 130 126 131 7 131 127 131 127 132 7 132 5 132 127 133 5 133 128 133 114 134 89 134 129 134 129 135 89 135 87 135 129 136 87 136 130 136 130 137 87 137 85 137 130 138 85 138 131 138 131 139 85 139 83 139 131 140 83 140 113 140 113 141 83 141 81 141 113 142 81 142 79 142 132 143 19 143 133 143 133 144 19 144 17 144 133 145 17 145 134 145 134 146 17 146 15 146 134 147 15 147 135 147 135 148 15 148 13 148 135 149 13 149 136 149 136 150 13 150 11 150 136 151 11 151 126 151 126 152 11 152 9 152 126 153 9 153 7 153 137 154 103 154 138 154 138 155 103 155 101 155 138 156 101 156 139 156 139 157 101 157 99 157 139 158 99 158 140 158 140 159 99 159 97 159 140 160 97 160 141 160 141 161 97 161 95 161 141 162 95 162 116 162 116 163 95 163 93 163 116 164 93 164 114 164 114 165 93 165 91 165 114 166 91 166 89 166 5 167 4 167 128 167 128 168 4 168 1 168 128 169 1 169 142 169 142 170 1 170 0 170 142 171 0 171 143 171 143 172 0 172 109 172 143 173 109 173 144 173 144 174 109 174 107 174 144 175 107 175 137 175 137 176 107 176 105 176 137 177 105 177 103 177 63 178 61 178 123 178 123 179 61 179 59 179 123 180 59 180 145 180 145 181 59 181 57 181 145 182 57 182 146 182 146 183 57 183 55 183 146 184 55 184 147 184 147 185 55 185 53 185 147 186 53 186 148 186 148 187 53 187 51 187 148 188 51 188 149 188 150 189 33 189 151 189 151 190 33 190 31 190 151 191 31 191 152 191 152 192 31 192 29 192 152 193 29 193 153 193 153 194 29 194 27 194 153 195 27 195 154 195 154 196 27 196 25 196 154 197 25 197 155 197 155 198 25 198 23 198 155 199 23 199 132 199 132 200 23 200 21 200 132 201 21 201 19 201 51 202 49 202 149 202 149 203 49 203 47 203 149 204 47 204 156 204 156 205 47 205 45 205 156 206 45 206 157 206 157 207 45 207 43 207 157 208 43 208 158 208 158 209 43 209 41 209 158 210 41 210 159 210 159 211 41 211 39 211 159 212 39 212 160 212 160 213 39 213 37 213 160 214 37 214 150 214 150 215 37 215 35 215 150 216 35 216 33 216 161 217 52 217 162 217 162 218 52 218 54 218 162 219 54 219 163 219 163 220 54 220 56 220 163 221 56 221 164 221 164 222 56 222 58 222 164 223 58 223 165 223 165 224 58 224 60 224 165 225 60 225 166 225 60 226 62 226 166 226 166 227 62 227 64 227 166 228 64 228 167 228 167 229 64 229 66 229 167 230 66 230 168 230 168 231 66 231 68 231 168 232 68 232 169 232 169 233 68 233 70 233 169 234 70 234 170 234 170 235 70 235 72 235 170 236 72 236 171 236 172 237 40 237 173 237 173 238 40 238 42 238 173 239 42 239 174 239 174 240 42 240 44 240 174 241 44 241 175 241 175 242 44 242 46 242 175 243 46 243 176 243 176 244 46 244 48 244 176 245 48 245 161 245 161 246 48 246 50 246 161 247 50 247 52 247 177 248 28 248 178 248 178 249 28 249 30 249 178 250 30 250 179 250 179 251 30 251 32 251 179 252 32 252 180 252 180 253 32 253 34 253 180 254 34 254 181 254 181 255 34 255 36 255 181 256 36 256 172 256 172 257 36 257 38 257 172 258 38 258 40 258 182 259 16 259 183 259 183 260 16 260 18 260 183 261 18 261 184 261 184 262 18 262 20 262 184 263 20 263 185 263 185 264 20 264 22 264 185 265 22 265 186 265 186 266 22 266 24 266 186 267 24 267 177 267 177 268 24 268 26 268 177 269 26 269 28 269 72 270 74 270 171 270 171 271 74 271 76 271 171 272 76 272 187 272 187 273 76 273 78 273 187 274 78 274 188 274 188 275 78 275 80 275 188 276 80 276 189 276 189 277 80 277 82 277 189 278 82 278 190 278 190 279 82 279 84 279 190 280 84 280 191 280 111 281 192 281 193 281 194 282 100 282 195 282 195 283 100 283 102 283 195 284 102 284 196 284 196 285 102 285 104 285 196 286 104 286 197 286 197 287 104 287 106 287 197 288 106 288 198 288 198 289 106 289 108 289 198 290 108 290 193 290 193 291 108 291 110 291 193 292 110 292 111 292 111 293 2 293 192 293 192 294 2 294 3 294 192 295 3 295 199 295 199 296 3 296 6 296 199 297 6 297 200 297 200 298 6 298 8 298 200 299 8 299 201 299 201 300 8 300 10 300 201 301 10 301 202 301 202 302 10 302 12 302 202 303 12 303 182 303 182 304 12 304 14 304 182 305 14 305 16 305 84 306 86 306 191 306 191 307 86 307 88 307 191 308 88 308 203 308 203 309 88 309 90 309 203 310 90 310 204 310 204 311 90 311 92 311 204 312 92 312 205 312 205 313 92 313 94 313 205 314 94 314 206 314 206 315 94 315 96 315 206 316 96 316 194 316 194 317 96 317 98 317 194 318 98 318 100 318 207 319 124 319 208 319 208 320 124 320 125 320 208 321 125 321 209 321 209 322 125 322 117 322 209 323 117 323 210 323 210 324 117 324 118 324 210 325 118 325 211 325 211 326 118 326 119 326 211 327 119 327 212 327 212 328 119 328 120 328 212 329 120 329 213 329 213 330 120 330 121 330 213 331 121 331 214 331 214 332 121 332 122 332 214 333 122 333 215 333 215 334 122 334 123 334 215 335 123 335 216 335 216 336 123 336 145 336 216 337 145 337 217 337 217 338 145 338 146 338 217 339 146 339 218 339 218 340 146 340 147 340 218 341 147 341 219 341 219 342 147 342 148 342 219 343 148 343 220 343 220 344 148 344 149 344 220 345 149 345 221 345 221 346 149 346 156 346 221 347 156 347 222 347 222 348 156 348 157 348 222 349 157 349 223 349 223 350 157 350 158 350 223 351 158 351 224 351 224 352 158 352 159 352 224 353 159 353 225 353 225 354 159 354 160 354 225 355 160 355 226 355 226 356 160 356 150 356 226 357 150 357 227 357 227 358 150 358 151 358 227 359 151 359 228 359 228 360 151 360 152 360 228 361 152 361 229 361 229 362 152 362 153 362 229 363 153 363 230 363 230 364 153 364 154 364 230 365 154 365 231 365 231 366 154 366 155 366 231 367 155 367 232 367 232 368 155 368 132 368 232 369 132 369 233 369 233 370 132 370 133 370 233 371 133 371 234 371 234 372 133 372 134 372 234 373 134 373 235 373 235 374 134 374 135 374 235 375 135 375 236 375 236 376 135 376 136 376 236 377 136 377 237 377 237 378 136 378 126 378 237 379 126 379 238 379 238 380 126 380 127 380 238 381 127 381 239 381 239 382 127 382 128 382 239 383 128 383 240 383 240 384 128 384 142 384 240 385 142 385 241 385 241 386 142 386 143 386 241 387 143 387 242 387 242 388 143 388 144 388 242 389 144 389 243 389 243 390 144 390 137 390 243 391 137 391 244 391 244 392 137 392 138 392 244 393 138 393 245 393 245 394 138 394 139 394 245 395 139 395 246 395 246 396 139 396 140 396 246 397 140 397 247 397 247 398 140 398 141 398 247 399 141 399 248 399 248 400 141 400 116 400 248 401 116 401 249 401 249 402 116 402 115 402 192 403 250 403 193 403 193 404 250 404 251 404 193 405 251 405 198 405 198 406 251 406 252 406 198 407 252 407 197 407 197 408 252 408 253 408 197 409 253 409 196 409 196 410 253 410 254 410 196 411 254 411 195 411 195 412 254 412 255 412 195 413 255 413 194 413 194 414 255 414 256 414 194 415 256 415 206 415 206 416 256 416 257 416 206 417 257 417 205 417 205 418 257 418 258 418 205 419 258 419 204 419 204 420 258 420 259 420 204 421 259 421 203 421 203 422 259 422 260 422 203 423 260 423 191 423 191 424 260 424 261 424 191 425 261 425 190 425 190 426 261 426 262 426 190 427 262 427 189 427 189 428 262 428 263 428 189 429 263 429 188 429 188 430 263 430 264 430 188 431 264 431 187 431 187 432 264 432 265 432 187 433 265 433 171 433 171 434 265 434 266 434 171 435 266 435 170 435 170 436 266 436 267 436 170 437 267 437 169 437 169 438 267 438 268 438 169 439 268 439 168 439 168 440 268 440 269 440 168 441 269 441 167 441 167 442 269 442 270 442 167 443 270 443 166 443 166 444 270 444 271 444 166 445 271 445 165 445 165 446 271 446 272 446 165 447 272 447 164 447 164 448 272 448 273 448 164 449 273 449 163 449 163 450 273 450 274 450 163 451 274 451 162 451 162 452 274 452 275 452 162 453 275 453 161 453 161 454 275 454 276 454 161 455 276 455 176 455 176 456 276 456 277 456 176 457 277 457 175 457 175 458 277 458 278 458 175 459 278 459 174 459 174 460 278 460 279 460 174 461 279 461 173 461 173 462 279 462 280 462 173 463 280 463 172 463 172 464 280 464 281 464 172 465 281 465 181 465 181 466 281 466 282 466 181 467 282 467 180 467 180 468 282 468 283 468 180 469 283 469 179 469 179 470 283 470 284 470 179 471 284 471 178 471 178 472 284 472 285 472 178 473 285 473 177 473 177 474 285 474 286 474 177 475 286 475 186 475 186 476 286 476 287 476 186 477 287 477 185 477 185 478 287 478 288 478 185 479 288 479 184 479 184 480 288 480 289 480 184 481 289 481 183 481 183 482 289 482 290 482 183 483 290 483 182 483 182 484 290 484 291 484 182 485 291 485 202 485 202 486 291 486 292 486 202 487 292 487 201 487 201 488 292 488 293 488 201 489 293 489 200 489 200 490 293 490 294 490 200 491 294 491 199 491 199 492 294 492 295 492 199 493 295 493 192 493 192 494 295 494 250 494 272 495 271 495 296 495 275 496 274 496 296 496 296 497 274 497 273 497 296 498 273 498 272 498 278 499 277 499 296 499 296 500 277 500 276 500 296 501 276 501 275 501 281 502 280 502 296 502 296 503 280 503 279 503 296 504 279 504 278 504 284 505 283 505 296 505 296 506 283 506 282 506 296 507 282 507 281 507 287 508 286 508 296 508 296 509 286 509 285 509 296 510 285 510 284 510 290 511 289 511 296 511 296 512 289 512 288 512 296 513 288 513 287 513 293 514 292 514 296 514 296 515 292 515 291 515 296 516 291 516 290 516 250 517 295 517 296 517 296 518 295 518 294 518 296 519 294 519 293 519 253 520 252 520 296 520 296 521 252 521 251 521 296 522 251 522 250 522 256 523 255 523 296 523 296 524 255 524 254 524 296 525 254 525 253 525 259 526 258 526 296 526 296 527 258 527 257 527 296 528 257 528 256 528 262 529 261 529 296 529 296 530 261 530 260 530 296 531 260 531 259 531 265 532 264 532 296 532 296 533 264 533 263 533 296 534 263 534 262 534 268 535 267 535 296 535 296 536 267 536 266 536 296 537 266 537 265 537 271 538 270 538 296 538 296 539 270 539 269 539 296 540 269 540 268 540 297 541 298 541 207 541 299 542 300 542 249 542 249 543 300 543 301 543 248 544 302 544 247 544 247 545 302 545 303 545 247 546 303 546 246 546 304 547 305 547 207 547 305 548 306 548 207 548 207 549 306 549 307 549 207 550 307 550 308 550 308 551 309 551 207 551 207 552 309 552 310 552 207 553 310 553 249 553 249 554 310 554 311 554 249 555 311 555 299 555 301 556 312 556 249 556 249 557 312 557 313 557 249 558 313 558 248 558 248 559 313 559 314 559 248 560 314 560 302 560 230 561 315 561 229 561 229 562 315 562 316 562 229 563 316 563 228 563 316 564 317 564 228 564 228 565 317 565 318 565 228 566 318 566 227 566 227 567 318 567 319 567 227 568 319 568 226 568 226 569 319 569 320 569 226 570 320 570 225 570 321 571 322 571 249 571 249 572 322 572 323 572 249 573 323 573 207 573 207 574 323 574 324 574 207 575 324 575 297 575 239 576 325 576 238 576 238 577 325 577 326 577 238 578 326 578 237 578 303 579 327 579 246 579 246 580 327 580 328 580 246 581 328 581 245 581 245 582 328 582 329 582 245 583 329 583 244 583 329 584 330 584 244 584 244 585 330 585 331 585 244 586 331 586 243 586 243 587 331 587 332 587 243 588 332 588 242 588 332 589 333 589 242 589 242 590 333 590 334 590 242 591 334 591 241 591 241 592 334 592 335 592 241 593 335 593 240 593 240 594 335 594 336 594 240 595 336 595 239 595 239 596 336 596 337 596 239 597 337 597 325 597 235 598 338 598 234 598 234 599 338 599 339 599 234 600 339 600 233 600 233 601 339 601 340 601 233 602 340 602 232 602 340 603 341 603 232 603 232 604 341 604 342 604 232 605 342 605 231 605 231 606 342 606 343 606 231 607 343 607 230 607 230 608 343 608 344 608 230 609 344 609 315 609 223 610 345 610 222 610 222 611 345 611 346 611 222 612 346 612 221 612 326 613 347 613 237 613 237 614 347 614 348 614 237 615 348 615 236 615 236 616 348 616 349 616 236 617 349 617 235 617 235 618 349 618 350 618 235 619 350 619 338 619 320 620 351 620 225 620 225 621 351 621 352 621 225 622 352 622 224 622 224 623 352 623 353 623 224 624 353 624 223 624 223 625 353 625 354 625 223 626 354 626 345 626 346 627 355 627 221 627 221 628 355 628 356 628 221 629 356 629 220 629 220 630 356 630 357 630 220 631 357 631 219 631 216 632 358 632 215 632 215 633 358 633 359 633 215 634 359 634 214 634 359 635 360 635 214 635 214 636 360 636 361 636 214 637 361 637 213 637 213 638 361 638 362 638 213 639 362 639 212 639 212 640 362 640 363 640 212 641 363 641 364 641 357 642 365 642 219 642 219 643 365 643 366 643 219 644 366 644 218 644 218 645 366 645 367 645 218 646 367 646 217 646 217 647 367 647 368 647 217 648 368 648 216 648 216 649 368 649 369 649 216 650 369 650 358 650 304 651 207 651 364 651 364 652 207 652 208 652 364 653 208 653 209 653 209 654 210 654 364 654 364 655 210 655 211 655 364 656 211 656 212 656 370 657 371 657 372 657 373 658 374 658 372 658 372 659 374 659 375 659 372 660 375 660 376 660 376 661 377 661 372 661 372 662 377 662 378 662 372 663 378 663 379 663 379 664 380 664 372 664 372 665 380 665 381 665 372 666 381 666 370 666 382 667 383 667 384 667 384 668 385 668 382 668 382 669 385 669 386 669 382 670 386 670 387 670 371 671 388 671 372 671 372 672 388 672 389 672 372 673 389 673 390 673 372 674 391 674 392 674 392 675 393 675 372 675 372 676 393 676 394 676 372 677 394 677 395 677 396 678 397 678 382 678 382 679 397 679 398 679 382 680 398 680 383 680 387 681 399 681 382 681 382 682 399 682 400 682 382 683 400 683 401 683 401 684 402 684 382 684 382 685 402 685 403 685 382 686 403 686 404 686 373 687 372 687 382 687 382 688 372 688 405 688 382 689 405 689 396 689 390 690 406 690 372 690 372 691 406 691 407 691 372 692 407 692 408 692 408 693 409 693 372 693 372 694 409 694 410 694 372 695 410 695 411 695 411 696 412 696 372 696 372 697 412 697 413 697 372 698 413 698 414 698 414 699 415 699 372 699 372 700 415 700 416 700 372 701 416 701 391 701 417 702 418 702 395 702 395 703 418 703 419 703 395 704 419 704 372 704 420 705 421 705 422 705 423 706 424 706 425 706 425 707 424 707 426 707 425 708 426 708 427 708 428 709 429 709 430 709 430 710 429 710 431 710 395 711 432 711 417 711 417 712 432 712 429 712 417 713 429 713 433 713 433 714 429 714 428 714 420 715 422 715 425 715 425 716 422 716 434 716 425 717 434 717 423 717 404 718 435 718 382 718 382 719 435 719 425 719 382 720 425 720 436 720 436 721 425 721 427 721 363 722 437 722 364 722 364 723 437 723 438 723 364 724 438 724 304 724 304 725 438 725 439 725 304 726 439 726 305 726 305 727 439 727 440 727 305 728 440 728 306 728 306 729 440 729 441 729 306 730 441 730 307 730 307 731 441 731 442 731 307 732 442 732 308 732 308 733 442 733 443 733 308 734 443 734 309 734 309 735 443 735 444 735 309 736 444 736 310 736 310 737 444 737 445 737 310 738 445 738 311 738 311 739 445 739 446 739 311 740 446 740 299 740 299 741 446 741 447 741 299 742 447 742 300 742 300 743 447 743 448 743 300 744 448 744 301 744 301 745 448 745 449 745 301 746 449 746 312 746 312 747 449 747 450 747 312 748 450 748 313 748 313 749 450 749 451 749 313 750 451 750 314 750 314 751 451 751 452 751 314 752 452 752 302 752 302 753 452 753 453 753 302 754 453 754 303 754 303 755 453 755 454 755 303 756 454 756 327 756 327 757 454 757 455 757 327 758 455 758 328 758 328 759 455 759 456 759 328 760 456 760 329 760 329 761 456 761 457 761 329 762 457 762 330 762 330 763 457 763 458 763 330 764 458 764 331 764 331 765 458 765 459 765 331 766 459 766 332 766 332 767 459 767 460 767 332 768 460 768 333 768 333 769 460 769 461 769 333 770 461 770 334 770 334 771 461 771 462 771 334 772 462 772 335 772 335 773 462 773 463 773 335 774 463 774 336 774 336 775 463 775 464 775 336 776 464 776 337 776 337 777 464 777 465 777 337 778 465 778 325 778 325 779 465 779 466 779 325 780 466 780 326 780 326 781 466 781 467 781 326 782 467 782 347 782 347 783 467 783 468 783 347 784 468 784 348 784 348 785 468 785 469 785 348 786 469 786 349 786 349 787 469 787 470 787 349 788 470 788 350 788 350 789 470 789 471 789 350 790 471 790 338 790 338 791 471 791 472 791 338 792 472 792 339 792 339 793 472 793 473 793 339 794 473 794 340 794 340 795 473 795 474 795 340 796 474 796 341 796 341 797 474 797 475 797 341 798 475 798 342 798 342 799 475 799 476 799 342 800 476 800 343 800 343 801 476 801 477 801 343 802 477 802 344 802 344 803 477 803 478 803 344 804 478 804 315 804 315 805 478 805 479 805 315 806 479 806 316 806 316 807 479 807 480 807 316 808 480 808 317 808 317 809 480 809 481 809 317 810 481 810 318 810 318 811 481 811 482 811 318 812 482 812 319 812 319 813 482 813 483 813 319 814 483 814 320 814 320 815 483 815 484 815 320 816 484 816 351 816 351 817 484 817 485 817 351 818 485 818 352 818 352 819 485 819 486 819 352 820 486 820 353 820 353 821 486 821 487 821 353 822 487 822 354 822 354 823 487 823 488 823 354 824 488 824 345 824 345 825 488 825 489 825 345 826 489 826 346 826 346 827 489 827 490 827 346 828 490 828 355 828 355 829 490 829 491 829 355 830 491 830 356 830 356 831 491 831 492 831 356 832 492 832 357 832 357 833 492 833 493 833 357 834 493 834 365 834 365 835 493 835 494 835 365 836 494 836 366 836 366 837 494 837 495 837 366 838 495 838 367 838 367 839 495 839 496 839 367 840 496 840 368 840 368 841 496 841 497 841 368 842 497 842 369 842 369 843 497 843 498 843 369 844 498 844 358 844 358 845 498 845 499 845 358 846 499 846 359 846 359 847 499 847 500 847 359 848 500 848 360 848 360 849 500 849 501 849 360 850 501 850 361 850 361 851 501 851 502 851 361 852 502 852 362 852 362 853 502 853 503 853 362 854 503 854 363 854 363 855 503 855 437 855 437 856 406 856 438 856 438 857 406 857 390 857 438 858 390 858 439 858 439 859 390 859 389 859 439 860 389 860 440 860 440 861 389 861 388 861 440 862 388 862 441 862 441 863 388 863 371 863 441 864 371 864 442 864 442 865 371 865 370 865 442 866 370 866 443 866 443 867 370 867 381 867 443 868 381 868 444 868 444 869 381 869 380 869 444 870 380 870 445 870 445 871 380 871 379 871 445 872 379 872 446 872 446 873 379 873 378 873 446 874 378 874 447 874 447 875 378 875 377 875 447 876 377 876 448 876 448 877 377 877 376 877 448 878 376 878 449 878 449 879 376 879 375 879 449 880 375 880 450 880 450 881 375 881 374 881 450 882 374 882 451 882 451 883 374 883 373 883 451 884 373 884 452 884 452 885 373 885 382 885 452 886 382 886 453 886 453 887 382 887 436 887 453 888 436 888 454 888 454 889 436 889 427 889 454 890 427 890 455 890 455 891 427 891 426 891 455 892 426 892 456 892 456 893 426 893 424 893 456 894 424 894 457 894 457 895 424 895 423 895 457 896 423 896 458 896 458 897 423 897 434 897 458 898 434 898 459 898 459 899 434 899 422 899 459 900 422 900 460 900 460 901 422 901 421 901 460 902 421 902 461 902 461 903 421 903 420 903 461 904 420 904 462 904 462 905 420 905 425 905 462 906 425 906 463 906 463 907 425 907 435 907 463 908 435 908 464 908 464 909 435 909 404 909 464 910 404 910 465 910 465 911 404 911 403 911 465 912 403 912 466 912 466 913 403 913 402 913 466 914 402 914 467 914 467 915 402 915 401 915 467 916 401 916 468 916 468 917 401 917 400 917 468 918 400 918 469 918 469 919 400 919 399 919 469 920 399 920 470 920 470 921 399 921 387 921 470 922 387 922 471 922 471 923 387 923 386 923 471 924 386 924 472 924 472 925 386 925 385 925 472 926 385 926 473 926 473 927 385 927 384 927 473 928 384 928 474 928 474 929 384 929 383 929 474 930 383 930 475 930 475 931 383 931 398 931 475 932 398 932 476 932 476 933 398 933 397 933 476 934 397 934 477 934 477 935 397 935 396 935 477 936 396 936 478 936 478 937 396 937 405 937 478 938 405 938 479 938 479 939 405 939 372 939 479 940 372 940 480 940 480 941 372 941 419 941 480 942 419 942 481 942 481 943 419 943 418 943 481 944 418 944 482 944 482 945 418 945 417 945 482 946 417 946 483 946 483 947 417 947 433 947 483 948 433 948 484 948 484 949 433 949 428 949 484 950 428 950 485 950 485 951 428 951 430 951 485 952 430 952 486 952 486 953 430 953 431 953 486 954 431 954 487 954 487 955 431 955 429 955 487 956 429 956 488 956 488 957 429 957 432 957 488 958 432 958 489 958 489 959 432 959 395 959 489 960 395 960 490 960 490 961 395 961 394 961 490 962 394 962 491 962 491 963 394 963 393 963 491 964 393 964 492 964 492 965 393 965 392 965 492 966 392 966 493 966 493 967 392 967 391 967 493 968 391 968 494 968 494 969 391 969 416 969 494 970 416 970 495 970 495 971 416 971 415 971 495 972 415 972 496 972 496 973 415 973 414 973 496 974 414 974 497 974 497 975 414 975 413 975 497 976 413 976 498 976 498 977 413 977 412 977 498 978 412 978 499 978 499 979 412 979 411 979 499 980 411 980 500 980 500 981 411 981 410 981 500 982 410 982 501 982 501 983 410 983 409 983 501 984 409 984 502 984 502 985 409 985 408 985 502 986 408 986 503 986 503 987 408 987 407 987 503 988 407 988 437 988 437 989 407 989 406 989 112 990 124 990 298 990 298 991 124 991 207 991 321 992 114 992 322 992 322 993 114 993 129 993 322 994 129 994 323 994 323 995 129 995 130 995 323 996 130 996 324 996 324 997 130 997 131 997 324 998 131 998 297 998 297 999 131 999 113 999 297 1000 113 1000 298 1000 298 1001 113 1001 112 1001 115 1002 114 1002 249 1002 249 1003 114 1003 321 1003</p>
        </triangles>
      </mesh>
    </geometry>
  </library_geometries>
  <library_visual_scenes>
    <visual_scene id="Scene" name="Scene">
      <node id="notch_ring" name="notch ring" type="NODE">
        <matrix sid="transform">0.001 0 0 0 0 0.001 0 0 0 0 0.001 0 0 0 0 1</matrix>
        <instance_geometry url="#notch_ring-mesh" name="notch ring"/>
      </node>
      <node id="Camera" name="Camera" type="NODE">
        <matrix sid="transform">0.6859207 -0.3240135 0.6515582 7.358891 0.7276763 0.3054208 -0.6141704 -6.925791 0 0.8953956 0.4452714 4.958309 0 0 0 1</matrix>
        <instance_camera url="#Camera-camera"/>
      </node>
      <node id="Light" name="Light" type="NODE">
        <matrix sid="transform">-0.2908646 -0.7711008 0.5663932 4.076245 0.9551712 -0.1998834 0.2183912 1.005454 -0.05518906 0.6045247 0.7946723 5.903862 0 0 0 1</matrix>
        <instance_light url="#Light-light"/>
      </node>
    </visual_scene>
  </library_visual_scenes>
  <scene>
    <instance_visual_scene url="#Scene"/>
  </scene>
</COLLADA>